<svg id="svg" version="1.1" xmlns="http://www.w3.org/2000/svg" xmlns:xlink="http://www.w3.org/1999/xlink" width="400" height="121.67577413479053" viewBox="0, 0, 400,121.67577413479053"><g id="svgg"><path id="path0" d="M59.452 4.770 C 59.387 4.835,59.333 5.018,59.333 5.175 C 59.333 5.332,59.183 5.500,59.000 5.548 C 58.713 5.623,58.667 5.776,58.667 6.651 C 58.667 7.556,58.630 7.667,58.333 7.667 C 58.050 7.667,58.000 7.778,58.000 8.405 C 58.000 8.984,57.932 9.166,57.685 9.244 C 57.327 9.358,57.172 9.798,57.169 10.708 C 57.167 11.221,57.107 11.333,56.833 11.333 C 56.534 11.333,56.500 11.444,56.500 12.417 C 56.500 13.367,56.461 13.500,56.186 13.500 C 55.868 13.500,55.673 13.920,55.669 14.617 C 55.668 14.818,55.542 15.053,55.390 15.138 C 55.202 15.244,55.089 15.590,55.036 16.230 C 54.972 17.007,54.906 17.167,54.646 17.167 C 54.372 17.167,54.333 17.302,54.333 18.250 C 54.333 19.198,54.294 19.333,54.021 19.333 C 53.685 19.333,53.500 19.903,53.500 20.937 C 53.500 21.389,53.434 21.500,53.167 21.500 C 52.868 21.500,52.833 21.611,52.833 22.583 C 52.833 23.556,52.799 23.667,52.500 23.667 C 52.216 23.667,52.167 23.778,52.167 24.417 C 52.167 25.041,52.114 25.167,51.851 25.167 C 51.454 25.167,51.333 25.479,51.333 26.514 C 51.333 27.222,51.288 27.333,51.000 27.333 C 50.701 27.333,50.667 27.444,50.667 28.417 C 50.667 29.368,50.628 29.500,50.351 29.500 C 49.992 29.500,49.833 29.810,49.833 30.514 C 49.833 30.818,49.747 31.000,49.601 31.000 C 49.287 31.000,49.167 31.372,49.167 32.347 C 49.167 33.056,49.121 33.167,48.833 33.167 C 48.535 33.167,48.500 33.278,48.500 34.238 C 48.500 35.223,48.469 35.314,48.125 35.363 C 47.815 35.407,47.741 35.537,47.700 36.108 C 47.662 36.628,47.569 36.820,47.325 36.884 C 47.048 36.956,47.000 37.118,47.000 37.984 C 47.000 38.889,46.964 39.000,46.667 39.000 C 46.368 39.000,46.333 39.111,46.333 40.083 C 46.333 41.128,46.318 41.167,45.917 41.167 C 45.536 41.167,45.500 41.229,45.500 41.897 C 45.500 42.488,45.436 42.645,45.167 42.715 C 44.879 42.790,44.833 42.942,44.833 43.818 C 44.833 44.722,44.797 44.833,44.500 44.833 C 44.248 44.833,44.166 44.945,44.165 45.292 C 44.161 46.350,43.963 47.000,43.645 47.000 C 43.388 47.000,43.333 47.128,43.333 47.731 C 43.333 48.321,43.269 48.478,43.000 48.548 C 42.713 48.623,42.667 48.776,42.667 49.639 C 42.667 50.554,42.633 50.648,42.292 50.697 C 41.955 50.745,41.912 50.856,41.867 51.792 C 41.824 52.697,41.775 52.833,41.492 52.833 C 41.219 52.833,41.167 52.950,41.167 53.564 C 41.167 54.154,41.103 54.311,40.833 54.382 C 40.547 54.457,40.500 54.609,40.500 55.473 C 40.500 56.387,40.466 56.482,40.125 56.530 C 39.788 56.578,39.745 56.689,39.700 57.625 C 39.657 58.530,39.608 58.667,39.325 58.667 C 39.051 58.667,39.000 58.784,39.000 59.417 C 39.000 60.056,38.951 60.167,38.667 60.167 C 38.368 60.167,38.333 60.278,38.333 61.250 C 38.333 62.294,38.318 62.333,37.917 62.333 C 37.515 62.333,37.500 62.372,37.500 63.417 C 37.500 64.389,37.466 64.500,37.167 64.500 C 36.883 64.500,36.833 64.611,36.833 65.250 C 36.833 65.872,36.780 66.000,36.521 66.000 C 36.185 66.000,36.000 66.569,36.000 67.604 C 36.000 68.056,35.934 68.167,35.667 68.167 C 35.368 68.167,35.333 68.278,35.333 69.250 C 35.333 70.222,35.299 70.333,35.000 70.333 C 34.716 70.333,34.667 70.444,34.667 71.083 C 34.667 71.707,34.614 71.833,34.353 71.833 C 33.991 71.833,33.839 72.262,33.836 73.292 C 33.834 73.888,33.781 74.000,33.500 74.000 C 33.193 74.000,33.167 74.111,33.167 75.417 L 33.167 76.833 39.000 76.833 L 44.833 76.833 44.833 75.750 C 44.833 74.778,44.868 74.667,45.167 74.667 C 45.446 74.667,45.500 74.556,45.500 73.985 C 45.500 73.498,45.598 73.224,45.844 73.025 C 46.280 72.672,46.450 71.518,46.168 70.836 C 45.919 70.235,46.157 69.818,46.673 69.953 C 46.952 70.026,47.000 69.953,47.000 69.456 C 47.000 69.012,47.080 68.851,47.333 68.785 C 47.621 68.710,47.667 68.558,47.667 67.682 C 47.667 66.797,47.707 66.667,47.982 66.667 C 48.378 66.667,48.500 66.354,48.500 65.339 C 48.500 64.679,48.558 64.524,48.833 64.452 C 49.121 64.377,49.167 64.224,49.167 63.349 L 49.167 62.333 59.845 62.333 C 70.447 62.333,70.522 62.336,70.417 62.667 C 70.334 62.927,70.387 63.000,70.655 63.000 C 70.957 63.000,71.000 63.102,71.000 63.820 C 71.000 64.854,71.120 65.167,71.518 65.167 C 71.781 65.167,71.833 65.292,71.833 65.917 C 71.833 66.556,71.883 66.667,72.167 66.667 C 72.466 66.667,72.500 66.778,72.500 67.750 C 72.500 68.713,72.536 68.833,72.825 68.833 C 73.108 68.833,73.157 68.970,73.200 69.875 C 73.245 70.811,73.288 70.922,73.625 70.970 C 73.969 71.019,74.000 71.110,74.000 72.095 C 74.000 73.056,74.035 73.167,74.333 73.167 C 74.630 73.167,74.667 73.278,74.667 74.182 C 74.667 75.058,74.713 75.210,75.000 75.285 C 75.201 75.338,75.334 75.514,75.336 75.728 C 75.337 75.923,75.383 76.252,75.438 76.458 L 75.539 76.833 81.269 76.833 L 87.000 76.833 87.000 75.417 C 87.000 74.111,86.974 74.000,86.667 74.000 C 86.368 74.000,86.333 73.889,86.333 72.917 C 86.333 71.944,86.299 71.833,86.000 71.833 C 85.716 71.833,85.667 71.722,85.667 71.083 C 85.667 70.394,85.633 70.333,85.250 70.333 C 84.848 70.333,84.833 70.294,84.833 69.250 C 84.833 68.278,84.799 68.167,84.500 68.167 C 84.201 68.167,84.167 68.056,84.167 67.083 C 84.167 66.111,84.132 66.000,83.833 66.000 C 83.577 66.000,83.500 65.889,83.500 65.521 C 83.500 64.615,83.290 63.958,82.975 63.875 C 82.734 63.812,82.667 63.634,82.667 63.064 C 82.667 62.444,82.616 62.333,82.333 62.333 C 82.034 62.333,82.000 62.222,82.000 61.250 C 82.000 60.206,81.985 60.167,81.583 60.167 C 81.182 60.167,81.167 60.128,81.167 59.083 C 81.167 58.111,81.132 58.000,80.833 58.000 C 80.549 58.000,80.500 57.889,80.500 57.250 C 80.500 56.617,80.449 56.500,80.175 56.500 C 79.892 56.500,79.843 56.363,79.800 55.458 C 79.755 54.523,79.712 54.411,79.375 54.363 C 79.031 54.314,79.000 54.223,79.000 53.238 C 79.000 52.278,78.965 52.167,78.667 52.167 C 78.383 52.167,78.333 52.056,78.333 51.417 C 78.333 50.778,78.284 50.667,78.000 50.667 C 77.712 50.667,77.667 50.556,77.667 49.847 C 77.667 48.813,77.546 48.500,77.149 48.500 C 76.872 48.500,76.833 48.368,76.833 47.417 C 76.833 46.444,76.799 46.333,76.500 46.333 C 76.216 46.333,76.167 46.222,76.167 45.583 C 76.167 44.894,76.133 44.833,75.750 44.833 C 75.348 44.833,75.333 44.794,75.333 43.750 C 75.333 42.778,75.299 42.667,75.000 42.667 C 74.701 42.667,74.667 42.556,74.667 41.583 C 74.667 40.611,74.632 40.500,74.333 40.500 C 74.056 40.500,74.000 40.389,74.000 39.844 C 74.000 39.001,73.744 38.333,73.421 38.333 C 73.231 38.333,73.167 38.144,73.167 37.583 C 73.167 36.944,73.117 36.833,72.833 36.833 C 72.534 36.833,72.500 36.722,72.500 35.750 C 72.500 34.778,72.466 34.667,72.167 34.667 C 71.899 34.667,71.833 34.556,71.833 34.104 C 71.833 33.069,71.648 32.500,71.313 32.500 C 71.053 32.500,71.000 32.372,71.000 31.750 C 71.000 31.111,70.951 31.000,70.667 31.000 C 70.368 31.000,70.333 30.889,70.333 29.917 C 70.333 28.872,70.318 28.833,69.917 28.833 C 69.515 28.833,69.500 28.794,69.500 27.750 C 69.500 26.778,69.466 26.667,69.167 26.667 C 68.883 26.667,68.833 26.556,68.833 25.917 C 68.833 25.278,68.784 25.167,68.500 25.167 C 68.201 25.167,68.167 25.056,68.167 24.083 C 68.167 23.039,68.152 23.000,67.750 23.000 C 67.348 23.000,67.333 22.961,67.333 21.917 C 67.333 20.944,67.299 20.833,67.000 20.833 C 66.716 20.833,66.667 20.722,66.667 20.083 C 66.667 19.444,66.617 19.333,66.333 19.333 C 66.053 19.333,66.000 19.221,65.998 18.625 C 65.994 17.596,65.842 17.167,65.481 17.167 C 65.215 17.167,65.167 17.038,65.167 16.333 C 65.167 15.722,65.078 15.411,64.833 15.167 C 64.611 14.944,64.500 14.611,64.500 14.167 C 64.500 13.626,64.441 13.500,64.188 13.500 C 63.852 13.500,63.667 12.931,63.667 11.896 C 63.667 11.444,63.601 11.333,63.333 11.333 C 63.045 11.333,63.000 11.222,63.000 10.506 C 63.000 9.905,62.913 9.598,62.679 9.381 C 62.493 9.208,62.336 8.802,62.304 8.416 C 62.260 7.872,62.181 7.740,61.875 7.697 C 61.531 7.648,61.500 7.556,61.500 6.572 C 61.500 5.624,61.463 5.500,61.178 5.500 C 60.971 5.500,60.837 5.366,60.803 5.125 C 60.749 4.745,59.742 4.480,59.452 4.770 M274.000 14.583 L 274.000 15.000 271.734 15.000 C 269.609 15.000,269.463 15.021,269.382 15.333 C 269.311 15.603,269.154 15.667,268.564 15.667 C 267.952 15.667,267.833 15.719,267.833 15.990 C 267.833 16.252,267.698 16.324,267.125 16.365 C 266.536 16.408,266.408 16.480,266.363 16.792 C 266.328 17.040,266.196 17.167,265.973 17.167 C 265.776 17.167,265.599 17.305,265.548 17.500 C 265.480 17.761,265.321 17.833,264.814 17.833 C 264.235 17.833,264.167 17.877,264.167 18.250 C 264.167 18.562,264.079 18.667,263.818 18.667 C 263.609 18.667,263.434 18.801,263.382 19.000 C 263.333 19.184,263.154 19.333,262.981 19.333 C 262.784 19.333,262.667 19.451,262.667 19.647 C 262.667 19.821,262.518 20.000,262.333 20.048 C 262.070 20.117,262.000 20.276,262.000 20.806 C 262.000 21.375,261.943 21.485,261.625 21.530 C 261.313 21.574,261.241 21.703,261.199 22.292 C 261.157 22.864,261.085 23.000,260.824 23.000 C 260.537 23.000,260.500 23.122,260.500 24.072 C 260.500 24.968,260.450 25.160,260.192 25.242 C 259.816 25.361,259.669 27.320,259.667 32.208 L 259.667 35.333 256.417 35.333 L 253.167 35.333 253.167 39.333 L 253.167 43.333 256.417 43.333 L 259.667 43.333 259.667 59.820 C 259.667 76.841,259.666 76.833,260.173 76.833 C 260.341 76.833,260.525 76.983,260.583 77.167 C 260.749 77.688,269.649 77.688,269.785 77.167 C 269.841 76.951,270.012 76.833,270.269 76.833 L 270.667 76.833 270.667 60.083 L 270.667 43.333 275.417 43.333 L 280.167 43.333 280.167 39.333 L 280.167 35.333 275.417 35.333 L 270.667 35.333 270.667 31.011 C 270.667 26.836,270.678 26.686,271.000 26.583 C 271.269 26.498,271.333 26.331,271.333 25.719 C 271.333 25.000,271.355 24.965,271.750 25.041 C 272.099 25.108,272.167 25.057,272.167 24.727 C 272.167 24.379,272.244 24.333,272.833 24.333 C 273.389 24.333,273.500 24.278,273.500 24.000 C 273.500 23.698,274.629 23.503,275.542 23.647 C 275.610 23.658,275.667 23.560,275.667 23.431 C 275.667 23.301,275.610 23.163,275.542 23.125 C 275.473 23.086,275.510 23.077,275.625 23.105 C 275.740 23.133,275.833 23.090,275.833 23.010 C 275.833 22.740,276.338 22.933,276.597 23.302 C 276.823 23.625,277.003 23.667,278.176 23.667 C 279.389 23.667,279.500 23.695,279.500 24.000 C 279.500 24.445,281.397 24.509,281.566 24.070 C 281.699 23.722,281.696 16.191,281.563 15.521 L 281.458 15.000 279.313 15.000 C 277.318 15.000,277.167 14.978,277.167 14.684 C 277.167 14.254,276.857 14.167,275.320 14.167 C 274.023 14.167,274.000 14.174,274.000 14.583 M214.611 15.778 C 214.550 15.839,214.500 29.601,214.500 46.361 L 214.500 76.833 219.667 76.833 L 224.833 76.833 224.833 46.250 L 224.833 15.667 219.778 15.667 C 216.997 15.667,214.672 15.717,214.611 15.778 M237.944 16.444 C 237.883 16.506,237.833 17.818,237.833 19.361 L 237.833 22.167 235.333 22.167 L 232.833 22.167 232.833 25.083 L 232.833 28.000 235.333 28.000 L 237.833 28.000 237.833 30.583 L 237.833 33.167 240.750 33.167 L 243.667 33.167 243.667 30.583 L 243.667 28.000 246.250 28.000 L 248.833 28.000 248.833 25.083 L 248.833 22.167 246.250 22.167 L 243.667 22.167 243.667 19.250 L 243.667 16.333 240.861 16.333 C 239.318 16.333,238.006 16.383,237.944 16.444 M283.833 26.917 L 283.833 29.500 290.333 29.500 L 296.833 29.500 296.833 26.917 L 296.833 24.333 290.333 24.333 L 283.833 24.333 283.833 26.917 M59.967 31.367 C 60.077 31.477,60.167 31.927,60.167 32.367 C 60.167 33.056,60.213 33.167,60.500 33.167 C 60.797 33.167,60.833 33.278,60.833 34.182 C 60.833 35.058,60.879 35.210,61.167 35.285 C 61.398 35.346,61.500 35.512,61.500 35.832 C 61.500 36.701,61.703 37.322,62.020 37.423 C 62.265 37.501,62.333 37.684,62.333 38.261 C 62.333 38.889,62.383 39.000,62.667 39.000 C 62.966 39.000,63.000 39.111,63.000 40.083 C 63.000 41.128,63.015 41.167,63.417 41.167 C 63.818 41.167,63.833 41.206,63.833 42.250 C 63.833 43.222,63.868 43.333,64.167 43.333 C 64.466 43.333,64.500 43.444,64.500 44.417 C 64.500 45.380,64.536 45.500,64.825 45.500 C 65.108 45.500,65.157 45.637,65.200 46.542 C 65.245 47.477,65.288 47.589,65.625 47.637 C 65.969 47.686,66.000 47.777,66.000 48.762 C 66.000 49.722,66.035 49.833,66.333 49.833 C 66.630 49.833,66.667 49.944,66.667 50.849 C 66.667 51.724,66.713 51.877,67.000 51.952 C 67.269 52.022,67.333 52.179,67.333 52.769 L 67.333 53.500 59.750 53.500 C 52.278 53.500,52.167 53.495,52.167 53.167 C 52.167 52.944,52.278 52.833,52.500 52.833 C 52.783 52.833,52.833 52.722,52.833 52.103 C 52.833 51.512,52.897 51.355,53.167 51.285 C 53.454 51.210,53.500 51.058,53.500 50.182 C 53.500 49.297,53.540 49.167,53.816 49.167 C 54.211 49.167,54.333 48.854,54.333 47.839 C 54.333 47.179,54.392 47.024,54.667 46.952 C 54.954 46.877,55.000 46.724,55.000 45.849 C 55.000 44.944,55.036 44.833,55.333 44.833 C 55.632 44.833,55.667 44.722,55.667 43.762 C 55.667 42.777,55.697 42.686,56.042 42.637 C 56.378 42.589,56.422 42.477,56.466 41.559 C 56.507 40.706,56.569 40.521,56.841 40.450 C 57.123 40.376,57.167 40.216,57.167 39.266 C 57.167 38.300,57.205 38.167,57.481 38.167 C 57.842 38.167,57.994 37.738,57.998 36.708 C 58.000 36.112,58.053 36.000,58.333 36.000 C 58.632 36.000,58.667 35.889,58.667 34.917 C 58.667 33.920,58.695 33.833,59.024 33.833 C 59.364 33.833,59.377 33.778,59.286 32.688 C 59.174 31.352,59.438 30.838,59.967 31.367 M113.404 34.021 C 113.324 34.150,113.354 34.174,113.490 34.089 C 113.634 34.000,113.680 34.057,113.639 34.272 C 113.586 34.551,113.382 34.588,111.689 34.631 C 109.971 34.674,109.791 34.708,109.713 35.006 C 109.646 35.262,109.484 35.333,108.965 35.333 C 108.442 35.333,108.284 35.404,108.215 35.667 C 108.167 35.851,107.988 36.000,107.814 36.000 C 107.590 36.000,107.500 36.120,107.500 36.417 C 107.500 36.799,107.439 36.833,106.750 36.833 C 106.111 36.833,106.000 36.883,106.000 37.167 C 106.000 37.389,105.889 37.500,105.667 37.500 C 105.422 37.500,105.333 37.611,105.333 37.917 C 105.333 38.250,105.250 38.333,104.917 38.333 C 104.611 38.333,104.500 38.422,104.500 38.667 C 104.500 38.887,104.389 39.000,104.172 39.000 C 103.870 39.000,103.841 38.863,103.797 37.208 L 103.750 35.417 98.292 35.373 L 92.833 35.329 92.833 56.081 L 92.833 76.833 98.333 76.833 L 103.833 76.833 103.833 63.333 C 103.833 49.944,103.836 49.833,104.167 49.833 C 104.466 49.833,104.500 49.722,104.500 48.750 C 104.500 47.706,104.515 47.667,104.917 47.667 C 105.290 47.667,105.333 47.599,105.333 47.019 C 105.333 46.512,105.406 46.353,105.667 46.285 C 105.866 46.233,106.000 46.058,106.000 45.849 C 106.000 45.611,106.106 45.500,106.333 45.500 C 106.552 45.500,106.667 45.389,106.667 45.178 C 106.667 44.971,106.801 44.837,107.042 44.803 C 107.283 44.769,107.436 44.616,107.470 44.375 C 107.504 44.134,107.638 44.000,107.845 44.000 C 108.056 44.000,108.167 43.885,108.167 43.667 C 108.167 43.368,108.278 43.333,109.250 43.333 C 110.222 43.333,110.333 43.299,110.333 43.000 C 110.333 42.698,110.444 42.667,111.500 42.667 C 112.556 42.667,112.667 42.698,112.667 43.000 C 112.667 43.299,112.778 43.333,113.750 43.333 C 114.722 43.333,114.833 43.368,114.833 43.667 C 114.833 43.889,114.944 44.000,115.167 44.000 C 115.385 44.000,115.500 44.111,115.500 44.322 C 115.500 44.499,115.642 44.689,115.815 44.744 C 115.989 44.799,116.169 44.992,116.216 45.172 C 116.267 45.366,116.444 45.500,116.651 45.500 C 116.894 45.500,117.000 45.606,117.000 45.849 C 117.000 46.058,117.134 46.233,117.333 46.285 C 117.618 46.360,117.667 46.512,117.667 47.342 C 117.667 48.164,117.717 48.327,118.000 48.417 C 118.330 48.521,118.333 48.670,118.336 62.303 C 118.337 69.882,118.383 76.252,118.438 76.458 L 118.539 76.833 123.936 76.833 L 129.333 76.833 129.333 64.417 C 129.333 52.111,129.336 52.000,129.667 52.000 C 129.974 52.000,130.000 51.889,130.000 50.595 C 130.000 49.265,130.020 49.187,130.375 49.137 C 130.687 49.092,130.759 48.964,130.801 48.375 C 130.843 47.802,130.915 47.667,131.176 47.667 C 131.441 47.667,131.500 47.549,131.500 47.019 C 131.500 46.512,131.572 46.353,131.833 46.285 C 132.033 46.233,132.167 46.058,132.167 45.849 C 132.167 45.588,132.272 45.500,132.583 45.500 C 132.889 45.500,133.000 45.411,133.000 45.167 C 133.000 44.944,133.111 44.833,133.333 44.833 C 133.578 44.833,133.667 44.722,133.667 44.417 C 133.667 44.105,133.755 44.000,134.016 44.000 C 134.224 44.000,134.400 43.866,134.452 43.667 C 134.526 43.382,134.679 43.333,135.508 43.333 C 136.331 43.333,136.494 43.283,136.583 43.000 C 136.675 42.712,136.836 42.667,137.761 42.667 C 138.722 42.667,138.833 42.701,138.833 43.000 C 138.833 43.299,138.944 43.333,139.917 43.333 C 140.889 43.333,141.000 43.368,141.000 43.667 C 141.000 43.885,141.111 44.000,141.322 44.000 C 141.529 44.000,141.663 44.134,141.697 44.375 C 141.731 44.616,141.884 44.769,142.125 44.803 C 142.366 44.837,142.500 44.971,142.500 45.178 C 142.500 45.389,142.615 45.500,142.833 45.500 C 143.117 45.500,143.167 45.611,143.167 46.250 C 143.167 46.889,143.216 47.000,143.500 47.000 C 143.798 47.000,143.834 47.112,143.836 48.042 C 143.839 49.401,143.963 49.833,144.353 49.833 C 144.658 49.833,144.667 50.223,144.667 63.333 L 144.667 76.833 150.083 76.833 L 155.500 76.833 155.500 62.835 C 155.500 49.017,155.496 48.833,155.167 48.628 C 154.858 48.435,154.833 48.239,154.833 45.944 C 154.833 43.609,154.814 43.464,154.500 43.382 C 154.267 43.321,154.167 43.154,154.167 42.828 C 154.167 42.143,154.005 41.833,153.649 41.833 C 153.392 41.833,153.333 41.710,153.333 41.167 C 153.333 40.611,153.278 40.500,153.000 40.500 C 152.716 40.500,152.667 40.389,152.667 39.750 C 152.667 39.061,152.633 39.000,152.250 39.000 C 151.953 39.000,151.833 38.910,151.833 38.686 C 151.833 38.512,151.684 38.333,151.500 38.285 C 151.301 38.233,151.167 38.058,151.167 37.849 C 151.167 37.611,151.061 37.500,150.833 37.500 C 150.611 37.500,150.500 37.389,150.500 37.167 C 150.500 36.922,150.389 36.833,150.083 36.833 C 149.750 36.833,149.667 36.750,149.667 36.417 C 149.667 36.130,149.575 36.000,149.373 36.000 C 149.212 36.000,148.983 35.845,148.864 35.655 C 148.696 35.385,148.495 35.315,147.949 35.337 C 146.648 35.388,146.500 35.354,146.500 35.000 C 146.500 34.694,146.389 34.667,145.167 34.667 C 143.949 34.667,143.833 34.638,143.833 34.337 C 143.833 33.642,138.295 33.598,138.197 34.292 C 138.146 34.649,138.072 34.667,136.655 34.667 C 135.278 34.667,135.167 34.692,135.167 35.000 C 135.167 35.284,135.056 35.333,134.417 35.333 C 133.778 35.333,133.667 35.383,133.667 35.667 C 133.667 35.937,133.556 36.000,133.079 36.000 C 132.606 36.000,132.461 36.081,132.333 36.417 C 132.236 36.672,132.044 36.833,131.837 36.833 C 131.611 36.833,131.500 36.943,131.500 37.167 C 131.500 37.385,131.389 37.500,131.178 37.500 C 130.971 37.500,130.837 37.634,130.803 37.875 C 130.769 38.116,130.616 38.269,130.375 38.303 C 130.134 38.337,130.000 38.471,130.000 38.678 C 130.000 38.889,129.885 39.000,129.667 39.000 C 129.444 39.000,129.333 39.111,129.333 39.333 C 129.333 39.556,129.222 39.667,129.000 39.667 C 128.756 39.667,128.667 39.778,128.667 40.083 C 128.667 40.417,128.583 40.500,128.250 40.500 C 127.944 40.500,127.833 40.589,127.833 40.833 C 127.833 41.567,127.190 41.222,127.135 40.458 C 127.092 39.869,127.020 39.741,126.708 39.697 C 126.400 39.653,126.333 39.538,126.333 39.056 C 126.333 38.609,126.254 38.448,126.000 38.382 C 125.784 38.325,125.667 38.154,125.667 37.897 C 125.667 37.619,125.572 37.500,125.353 37.500 C 125.179 37.500,125.000 37.351,124.952 37.167 C 124.882 36.902,124.724 36.833,124.182 36.833 C 123.601 36.833,123.500 36.782,123.500 36.484 C 123.500 36.281,123.367 36.101,123.182 36.052 C 123.007 36.007,122.827 35.826,122.781 35.651 C 122.717 35.406,122.547 35.333,122.035 35.333 C 121.512 35.333,121.354 35.263,121.285 35.000 C 121.206 34.700,121.058 34.667,119.777 34.667 C 118.431 34.667,118.354 34.647,118.303 34.292 C 118.241 33.852,113.664 33.599,113.404 34.021 M186.278 33.944 C 186.217 34.006,186.167 34.193,186.167 34.361 C 186.167 34.633,186.013 34.667,184.769 34.667 C 183.547 34.667,183.362 34.706,183.291 34.977 C 183.229 35.215,183.005 35.306,182.327 35.372 C 181.815 35.421,181.367 35.562,181.260 35.709 C 181.158 35.848,180.927 35.989,180.746 36.024 C 180.557 36.060,180.394 36.246,180.363 36.460 C 180.318 36.776,180.207 36.833,179.639 36.833 C 179.109 36.833,178.951 36.903,178.882 37.167 C 178.833 37.351,178.654 37.500,178.481 37.500 C 178.257 37.500,178.167 37.620,178.167 37.917 C 178.167 38.222,178.078 38.333,177.833 38.333 C 177.611 38.333,177.500 38.444,177.500 38.667 C 177.500 38.911,177.389 39.000,177.083 39.000 C 176.786 39.000,176.667 39.090,176.667 39.314 C 176.667 39.488,176.518 39.667,176.333 39.715 C 176.012 39.799,176.000 39.720,176.000 37.568 L 176.000 35.333 170.500 35.333 L 165.000 35.333 165.000 65.586 L 165.000 95.838 170.458 95.794 L 175.917 95.750 175.959 84.458 C 176.002 73.305,176.006 73.167,176.334 73.167 C 176.578 73.167,176.667 73.278,176.667 73.583 C 176.667 73.917,176.750 74.000,177.083 74.000 C 177.389 74.000,177.500 74.089,177.500 74.333 C 177.500 74.556,177.611 74.667,177.833 74.667 C 178.056 74.667,178.167 74.778,178.167 75.000 C 178.167 75.218,178.278 75.333,178.488 75.333 C 178.695 75.333,178.829 75.467,178.863 75.708 C 178.908 76.020,179.036 76.092,179.625 76.135 C 180.198 76.176,180.333 76.248,180.333 76.510 C 180.333 76.782,180.452 76.833,181.083 76.833 C 181.704 76.833,181.833 76.887,181.833 77.143 C 181.833 77.466,182.725 77.662,184.208 77.665 C 184.629 77.666,184.833 77.742,184.833 77.897 C 184.833 78.456,188.140 78.555,188.285 78.000 C 188.365 77.696,188.513 77.667,189.978 77.665 C 192.415 77.663,193.333 77.520,193.333 77.143 C 193.333 76.872,193.472 76.833,194.432 76.833 C 195.391 76.833,195.542 76.791,195.618 76.500 C 195.667 76.316,195.846 76.167,196.019 76.167 C 196.243 76.167,196.333 76.047,196.333 75.750 C 196.333 75.367,196.394 75.333,197.083 75.333 C 197.722 75.333,197.833 75.284,197.833 75.000 C 197.833 74.778,197.944 74.667,198.167 74.667 C 198.385 74.667,198.500 74.556,198.500 74.345 C 198.500 74.138,198.634 74.004,198.875 73.970 C 199.116 73.936,199.269 73.783,199.303 73.542 C 199.337 73.301,199.471 73.167,199.678 73.167 C 199.889 73.167,200.000 73.052,200.000 72.833 C 200.000 72.611,200.111 72.500,200.333 72.500 C 200.552 72.500,200.667 72.389,200.667 72.178 C 200.667 71.971,200.801 71.837,201.042 71.803 C 201.283 71.769,201.436 71.616,201.470 71.375 C 201.504 71.134,201.638 71.000,201.845 71.000 C 202.115 71.000,202.167 70.880,202.167 70.250 C 202.167 69.611,202.216 69.500,202.500 69.500 C 202.722 69.500,202.833 69.389,202.833 69.167 C 202.833 68.922,202.944 68.833,203.250 68.833 C 203.633 68.833,203.667 68.772,203.667 68.083 C 203.667 67.444,203.716 67.333,204.000 67.333 C 204.299 67.333,204.333 67.222,204.333 66.262 C 204.333 65.277,204.364 65.186,204.708 65.137 C 205.043 65.089,205.089 64.975,205.134 64.087 C 205.172 63.361,205.274 63.009,205.509 62.789 C 205.804 62.514,205.833 62.247,205.833 59.846 C 205.833 57.346,205.851 57.201,206.167 57.118 C 206.477 57.037,206.500 56.891,206.500 55.000 C 206.500 53.109,206.477 52.963,206.167 52.882 C 205.852 52.799,205.833 52.654,205.833 50.324 C 205.833 48.082,205.712 47.356,205.417 47.833 C 205.187 48.204,205.063 47.807,205.131 46.921 C 205.233 45.585,205.063 44.833,204.659 44.833 C 204.384 44.833,204.333 44.716,204.333 44.083 C 204.333 43.452,204.282 43.333,204.010 43.333 C 203.748 43.333,203.676 43.198,203.635 42.625 C 203.592 42.036,203.520 41.908,203.208 41.863 C 202.892 41.818,202.833 41.708,202.833 41.155 C 202.833 40.611,202.777 40.500,202.500 40.500 C 202.256 40.500,202.167 40.389,202.167 40.083 C 202.167 39.778,202.078 39.667,201.833 39.667 C 201.611 39.667,201.500 39.556,201.500 39.333 C 201.500 39.089,201.389 39.000,201.083 39.000 C 200.778 39.000,200.667 38.911,200.667 38.667 C 200.667 38.444,200.556 38.333,200.333 38.333 C 200.089 38.333,200.000 38.222,200.000 37.917 C 200.000 37.611,199.911 37.500,199.667 37.500 C 199.444 37.500,199.333 37.389,199.333 37.167 C 199.333 36.922,199.222 36.833,198.917 36.833 C 198.616 36.833,198.500 36.744,198.500 36.510 C 198.500 36.255,198.342 36.163,197.750 36.075 C 197.166 35.987,197.000 35.893,197.000 35.648 C 197.000 35.372,196.867 35.333,195.917 35.333 C 194.944 35.333,194.833 35.299,194.833 35.000 C 194.833 34.693,194.722 34.667,193.417 34.667 C 192.258 34.667,192.000 34.620,192.000 34.413 C 192.000 33.917,186.736 33.487,186.278 33.944 M321.875 33.941 C 321.760 33.989,321.667 34.172,321.667 34.347 C 321.667 34.643,321.529 34.667,319.833 34.667 C 318.111 34.667,318.000 34.687,318.000 35.000 C 318.000 35.299,317.889 35.333,316.917 35.333 C 315.944 35.333,315.833 35.368,315.833 35.667 C 315.833 35.924,315.722 36.000,315.347 36.000 C 314.644 36.000,314.333 36.159,314.333 36.518 C 314.333 36.775,314.210 36.833,313.667 36.833 C 313.111 36.833,313.000 36.889,313.000 37.167 C 313.000 37.411,312.889 37.500,312.583 37.500 C 312.250 37.500,312.167 37.583,312.167 37.917 C 312.167 38.222,312.078 38.333,311.833 38.333 C 311.611 38.333,311.500 38.444,311.500 38.667 C 311.500 38.882,311.389 39.000,311.186 39.000 C 311.013 39.000,310.834 39.145,310.788 39.322 C 310.727 39.557,310.530 39.659,310.060 39.697 C 309.432 39.749,309.415 39.767,309.365 40.458 C 309.320 41.084,309.267 41.167,308.907 41.167 C 308.620 41.167,308.500 41.259,308.500 41.481 C 308.500 41.654,308.351 41.833,308.167 41.882 C 307.967 41.934,307.833 42.109,307.833 42.318 C 307.833 42.552,307.727 42.667,307.510 42.667 C 307.248 42.667,307.176 42.802,307.135 43.375 C 307.092 43.964,307.020 44.092,306.708 44.137 C 306.392 44.182,306.333 44.292,306.333 44.845 C 306.333 45.389,306.277 45.500,306.000 45.500 C 305.716 45.500,305.667 45.611,305.667 46.250 C 305.667 46.889,305.617 47.000,305.333 47.000 C 305.026 47.000,305.000 47.111,305.000 48.413 C 305.000 49.782,304.987 49.830,304.583 49.932 L 304.167 50.036 304.167 52.507 C 304.167 54.831,304.147 54.984,303.833 55.083 C 303.553 55.172,303.500 55.336,303.500 56.110 C 303.500 56.891,303.551 57.044,303.833 57.118 C 304.151 57.201,304.167 57.346,304.167 60.103 C 304.167 61.923,304.229 63.000,304.333 63.000 C 304.425 63.000,304.500 62.927,304.500 62.839 C 304.500 62.750,304.612 62.720,304.750 62.773 C 304.947 62.848,305.000 63.189,305.000 64.367 C 305.000 65.724,305.031 65.873,305.333 65.952 C 305.618 66.026,305.667 66.179,305.667 67.000 C 305.667 67.821,305.715 67.974,306.000 68.048 C 306.265 68.118,306.333 68.276,306.333 68.818 C 306.333 69.434,306.373 69.500,306.750 69.500 C 307.083 69.500,307.167 69.583,307.167 69.917 C 307.167 70.222,307.256 70.333,307.500 70.333 C 307.683 70.333,307.833 70.399,307.833 70.479 C 307.833 70.559,308.058 70.670,308.333 70.725 C 308.867 70.832,308.965 71.127,308.640 71.647 C 308.386 72.055,308.571 72.500,308.995 72.500 C 309.222 72.500,309.333 72.609,309.333 72.833 C 309.333 73.056,309.444 73.167,309.667 73.167 C 309.888 73.167,310.000 73.278,310.000 73.497 C 310.000 73.707,310.147 73.864,310.405 73.929 C 310.627 73.984,310.848 74.132,310.896 74.256 C 310.943 74.380,311.249 74.532,311.575 74.593 C 312.005 74.673,312.167 74.790,312.167 75.019 C 312.167 75.281,312.293 75.333,312.917 75.333 C 313.606 75.333,313.667 75.367,313.667 75.750 C 313.667 76.083,313.750 76.167,314.083 76.167 C 314.389 76.167,314.500 76.256,314.500 76.500 C 314.500 76.799,314.611 76.833,315.583 76.833 C 316.529 76.833,316.667 76.873,316.667 77.143 C 316.667 77.505,317.579 77.663,319.689 77.665 C 320.820 77.667,320.971 77.704,321.048 78.000 C 321.184 78.520,327.982 78.520,328.118 78.000 C 328.196 77.704,328.346 77.667,329.478 77.665 C 331.524 77.663,332.476 77.503,332.591 77.144 C 332.672 76.886,332.860 76.833,333.694 76.833 C 334.558 76.833,334.710 76.787,334.785 76.500 C 334.857 76.225,335.012 76.167,335.672 76.167 C 336.687 76.167,337.000 76.045,337.000 75.649 C 337.000 75.393,337.123 75.333,337.647 75.333 C 338.154 75.333,338.313 75.261,338.382 75.000 C 338.434 74.801,338.609 74.667,338.818 74.667 C 339.163 74.667,339.167 74.620,339.167 70.333 L 339.167 66.000 338.083 66.000 C 337.111 66.000,337.000 66.034,337.000 66.333 C 337.000 66.556,336.889 66.667,336.667 66.667 C 336.448 66.667,336.333 66.778,336.333 66.990 C 336.333 67.252,336.198 67.324,335.625 67.365 C 335.036 67.408,334.908 67.480,334.863 67.792 C 334.814 68.136,334.723 68.167,333.738 68.167 C 332.778 68.167,332.667 68.201,332.667 68.500 C 332.667 68.799,332.556 68.833,331.583 68.833 C 330.611 68.833,330.500 68.868,330.500 69.167 C 330.500 69.490,330.389 69.500,326.873 69.500 C 323.427 69.500,323.236 69.483,323.039 69.167 C 322.872 68.900,322.650 68.833,321.935 68.833 C 321.179 68.833,321.025 68.781,320.952 68.500 C 320.883 68.236,320.724 68.167,320.194 68.167 C 319.625 68.167,319.515 68.110,319.470 67.792 C 319.436 67.551,319.283 67.398,319.042 67.363 C 318.835 67.334,318.667 67.211,318.667 67.090 C 318.667 66.832,318.304 66.667,317.736 66.667 C 317.408 66.667,317.333 66.581,317.331 66.208 C 317.328 65.668,317.190 65.432,316.792 65.285 C 316.631 65.226,316.500 65.025,316.500 64.839 C 316.500 64.611,316.391 64.500,316.167 64.500 C 315.883 64.500,315.833 64.389,315.833 63.750 C 315.833 63.111,315.784 63.000,315.500 63.000 C 315.195 63.000,315.167 62.889,315.167 61.677 C 315.167 60.949,315.090 60.306,314.996 60.247 C 314.902 60.189,314.836 60.204,314.849 60.279 C 314.907 60.615,314.815 60.692,314.583 60.500 C 314.446 60.386,314.333 60.077,314.333 59.813 L 314.333 59.333 328.167 59.333 L 342.000 59.333 342.000 53.917 C 342.000 48.611,341.993 48.500,341.667 48.500 C 341.358 48.500,341.333 48.389,341.333 47.000 C 341.333 45.611,341.309 45.500,341.000 45.500 C 340.744 45.500,340.667 45.389,340.667 45.021 C 340.667 44.133,340.466 43.512,340.147 43.410 C 339.911 43.336,339.833 43.151,339.833 42.667 C 339.833 42.169,339.758 41.998,339.500 41.917 C 339.317 41.858,339.167 41.666,339.167 41.489 C 339.167 41.283,339.052 41.167,338.848 41.167 C 338.606 41.167,338.502 41.006,338.417 40.500 C 338.331 39.994,338.227 39.833,337.985 39.833 C 337.757 39.833,337.667 39.716,337.667 39.417 C 337.667 39.111,337.578 39.000,337.333 39.000 C 337.111 39.000,337.000 38.889,337.000 38.667 C 337.000 38.422,336.889 38.333,336.583 38.333 C 336.272 38.333,336.167 38.245,336.167 37.984 C 336.167 37.781,336.034 37.601,335.849 37.552 C 335.674 37.507,335.493 37.326,335.448 37.151 C 335.383 36.904,335.213 36.833,334.682 36.833 C 334.124 36.833,334.000 36.776,334.000 36.518 C 334.000 36.175,333.692 36.000,333.089 36.000 C 332.846 36.000,332.674 35.878,332.618 35.667 C 332.542 35.376,332.391 35.333,331.432 35.333 C 330.444 35.333,330.333 35.300,330.333 35.000 C 330.333 34.686,330.222 34.667,328.437 34.667 C 326.924 34.667,326.497 34.614,326.326 34.407 C 326.207 34.265,326.179 34.171,326.263 34.199 C 326.348 34.227,326.436 34.175,326.459 34.083 C 326.503 33.910,322.267 33.779,321.875 33.941 M366.167 35.000 C 366.167 35.279,366.056 35.333,365.484 35.333 C 364.953 35.333,364.784 35.404,364.719 35.651 C 364.673 35.826,364.493 36.007,364.318 36.052 C 364.133 36.101,364.000 36.281,364.000 36.484 C 364.000 36.745,363.895 36.833,363.583 36.833 C 363.278 36.833,363.167 36.922,363.167 37.167 C 363.167 37.389,363.056 37.500,362.833 37.500 C 362.589 37.500,362.500 37.611,362.500 37.917 C 362.500 38.222,362.411 38.333,362.167 38.333 C 361.944 38.333,361.833 38.444,361.833 38.667 C 361.833 38.911,361.722 39.000,361.417 39.000 C 361.034 39.000,361.000 39.061,361.000 39.750 C 361.000 40.389,360.951 40.500,360.667 40.500 C 360.348 40.500,360.333 40.389,360.333 37.917 L 360.333 35.333 355.250 35.333 L 350.167 35.333 350.167 56.417 L 350.167 77.500 355.149 77.500 C 359.538 77.500,360.143 77.469,360.232 77.236 C 360.288 77.091,360.333 71.841,360.333 65.570 C 360.333 55.934,360.369 54.167,360.566 54.167 C 360.900 54.167,361.000 53.787,361.000 52.526 C 361.000 51.594,361.054 51.380,361.333 51.205 C 361.601 51.038,361.667 50.817,361.667 50.082 C 361.667 49.217,361.689 49.167,362.083 49.167 C 362.466 49.167,362.500 49.106,362.500 48.417 C 362.500 47.778,362.549 47.667,362.833 47.667 C 363.056 47.667,363.167 47.556,363.167 47.333 C 363.167 47.106,363.278 47.000,363.516 47.000 C 363.722 47.000,363.899 46.866,363.950 46.672 C 363.997 46.492,364.178 46.299,364.351 46.244 C 364.525 46.189,364.667 45.999,364.667 45.822 C 364.667 45.611,364.782 45.500,365.000 45.500 C 365.222 45.500,365.333 45.389,365.333 45.167 C 365.333 44.883,365.444 44.833,366.083 44.833 C 366.772 44.833,366.833 44.799,366.833 44.417 L 366.833 44.000 369.417 44.000 L 372.000 44.000 372.000 44.417 C 372.000 44.828,372.017 44.833,373.417 44.833 L 374.833 44.833 374.833 40.083 C 374.833 35.444,374.826 35.333,374.500 35.333 C 374.278 35.333,374.167 35.222,374.167 35.000 C 374.167 34.676,374.056 34.667,370.167 34.667 C 366.278 34.667,366.167 34.676,366.167 35.000 M235.669 56.042 C 235.670 67.431,235.716 76.919,235.772 77.125 L 235.872 77.500 240.785 77.500 C 245.558 77.500,245.700 77.490,245.785 77.167 C 245.833 76.983,246.005 76.833,246.168 76.833 C 246.331 76.833,246.510 76.715,246.566 76.570 C 246.698 76.225,246.698 35.942,246.566 35.597 C 246.476 35.364,245.835 35.333,241.066 35.333 L 235.667 35.333 235.669 56.042 M285.268 35.597 C 285.133 35.949,285.137 75.739,285.273 76.727 L 285.379 77.500 290.335 77.500 L 295.292 77.500 295.396 76.979 C 295.453 76.693,295.500 67.205,295.500 55.896 L 295.500 35.333 290.434 35.333 C 285.969 35.333,285.357 35.365,285.268 35.597 M187.048 43.000 C 187.126 43.299,187.276 43.333,188.484 43.333 C 189.722 43.333,189.833 43.361,189.833 43.667 C 189.833 43.951,189.944 44.000,190.583 44.000 C 191.314 44.000,191.446 44.121,191.353 44.708 C 191.342 44.777,191.483 44.833,191.667 44.833 C 191.889 44.833,192.000 44.944,192.000 45.167 C 192.000 45.385,192.111 45.500,192.322 45.500 C 192.529 45.500,192.663 45.634,192.697 45.875 C 192.731 46.116,192.884 46.269,193.125 46.303 C 193.441 46.348,193.500 46.459,193.500 47.012 C 193.500 47.556,193.557 47.667,193.833 47.667 C 194.117 47.667,194.167 47.778,194.167 48.417 C 194.167 49.056,194.216 49.167,194.500 49.167 C 194.803 49.167,194.833 49.278,194.835 50.375 C 194.837 52.359,195.000 53.311,195.356 53.424 C 195.827 53.573,195.829 57.085,195.359 57.208 C 194.961 57.312,194.833 57.972,194.833 59.918 C 194.833 61.321,194.803 61.469,194.500 61.548 C 194.209 61.624,194.167 61.776,194.167 62.734 C 194.167 63.722,194.133 63.833,193.833 63.833 C 193.615 63.833,193.500 63.944,193.500 64.155 C 193.500 64.362,193.366 64.496,193.125 64.530 C 192.813 64.574,192.741 64.703,192.699 65.292 C 192.657 65.864,192.585 66.000,192.324 66.000 C 192.111 66.000,192.000 66.114,192.000 66.333 C 192.000 66.556,191.889 66.667,191.667 66.667 C 191.448 66.667,191.333 66.778,191.333 66.988 C 191.333 67.195,191.199 67.329,190.958 67.363 C 190.717 67.398,190.564 67.551,190.530 67.792 C 190.485 68.107,190.374 68.167,189.833 68.167 C 189.336 68.167,189.165 68.242,189.083 68.500 C 188.993 68.783,188.831 68.833,188.000 68.833 C 187.169 68.833,187.007 68.883,186.917 69.167 C 186.781 69.593,183.833 69.689,183.833 69.268 C 183.833 68.932,183.453 68.833,182.153 68.833 C 181.111 68.833,181.000 68.801,181.000 68.500 C 181.000 68.285,180.889 68.167,180.686 68.167 C 180.513 68.167,180.334 68.019,180.286 67.838 C 180.225 67.605,180.002 67.478,179.517 67.400 C 178.999 67.317,178.833 67.215,178.833 66.979 C 178.833 66.778,178.715 66.667,178.500 66.667 C 178.222 66.667,178.167 66.556,178.167 66.003 C 178.167 65.434,178.107 65.325,177.750 65.235 C 177.489 65.170,177.333 65.013,177.333 64.815 C 177.333 64.611,177.216 64.500,177.000 64.500 C 176.716 64.500,176.667 64.389,176.667 63.750 C 176.667 63.111,176.617 63.000,176.333 63.000 C 176.006 63.000,176.000 62.889,176.000 56.853 C 176.000 50.846,176.008 50.704,176.333 50.618 C 176.594 50.550,176.667 50.391,176.667 49.889 C 176.667 49.427,176.760 49.188,177.000 49.039 C 177.228 48.896,177.333 48.650,177.333 48.260 C 177.333 47.796,177.403 47.680,177.708 47.637 C 178.007 47.594,178.094 47.460,178.134 46.975 C 178.170 46.539,178.276 46.344,178.509 46.283 C 178.700 46.233,178.833 46.054,178.833 45.849 C 178.833 45.606,178.939 45.500,179.182 45.500 C 179.385 45.500,179.566 45.367,179.614 45.182 C 179.668 44.977,179.905 44.826,180.284 44.755 C 180.666 44.683,180.900 44.532,180.955 44.322 C 181.008 44.117,181.184 44.000,181.436 44.000 C 181.722 44.000,181.833 43.907,181.833 43.667 C 181.833 43.361,181.944 43.333,183.182 43.333 C 184.391 43.333,184.540 43.299,184.618 43.000 C 184.695 42.708,184.846 42.667,185.833 42.667 C 186.821 42.667,186.972 42.708,187.048 43.000 M327.500 43.000 C 327.500 43.215,327.611 43.333,327.814 43.333 C 327.988 43.333,328.167 43.482,328.215 43.667 C 328.267 43.866,328.442 44.000,328.651 44.000 C 328.894 44.000,329.000 44.106,329.000 44.349 C 329.000 44.558,329.134 44.733,329.333 44.785 C 329.518 44.833,329.667 45.012,329.667 45.186 C 329.667 45.410,329.786 45.500,330.083 45.500 C 330.395 45.500,330.500 45.588,330.500 45.849 C 330.500 46.058,330.634 46.233,330.833 46.285 C 331.123 46.361,331.167 46.512,331.167 47.436 C 331.167 48.389,331.201 48.500,331.500 48.500 C 331.807 48.500,331.833 48.611,331.833 49.917 L 331.833 51.333 323.458 51.334 L 315.083 51.334 315.139 50.266 C 315.184 49.380,315.248 49.184,315.514 49.115 C 315.761 49.050,315.833 48.882,315.833 48.368 C 315.833 47.846,315.904 47.687,316.167 47.618 C 316.420 47.552,316.500 47.391,316.500 46.950 C 316.500 46.470,316.572 46.351,316.917 46.265 C 317.186 46.197,317.333 46.043,317.333 45.830 C 317.333 45.611,317.446 45.500,317.667 45.500 C 317.889 45.500,318.000 45.389,318.000 45.167 C 318.000 44.951,318.111 44.833,318.315 44.833 C 318.513 44.833,318.670 44.677,318.735 44.417 C 318.803 44.148,318.957 44.000,319.170 44.000 C 319.389 44.000,319.500 43.888,319.500 43.667 C 319.500 43.388,319.611 43.333,320.182 43.333 C 320.724 43.333,320.882 43.265,320.952 43.000 C 321.035 42.681,321.179 42.667,324.269 42.667 C 327.389 42.667,327.500 42.678,327.500 43.000 " stroke="none" fill="#fcfcfc" fill-rule="evenodd"></path><path id="path1" d="M273.551 14.366 C 273.079 14.594,272.916 15.000,273.297 14.999 C 273.454 14.998,273.670 14.810,273.776 14.582 C 273.882 14.354,273.957 14.172,273.943 14.178 C 273.928 14.184,273.752 14.269,273.551 14.366 M271.333 25.431 C 271.333 25.576,271.422 25.665,271.531 25.628 C 271.840 25.525,271.892 25.167,271.597 25.167 C 271.452 25.167,271.333 25.285,271.333 25.431 M59.708 31.618 C 59.237 31.708,59.184 32.333,59.647 32.333 C 59.850 32.333,59.989 32.185,60.041 31.917 C 60.085 31.688,60.112 31.510,60.102 31.523 C 60.092 31.535,59.915 31.578,59.708 31.618 M112.867 34.200 C 112.573 34.494,112.622 34.667,113.000 34.667 C 113.222 34.667,113.333 34.556,113.333 34.333 C 113.333 33.956,113.160 33.906,112.867 34.200 M146.785 35.000 C 146.833 35.183,146.976 35.333,147.103 35.333 C 147.420 35.333,147.394 34.892,147.070 34.768 C 146.696 34.624,146.688 34.630,146.785 35.000 M93.417 35.167 C 93.349 35.276,94.918 35.333,98.000 35.333 C 101.082 35.333,102.651 35.276,102.583 35.167 C 102.519 35.062,100.807 35.000,98.000 35.000 C 95.193 35.000,93.481 35.062,93.417 35.167 M166.250 35.167 C 166.182 35.276,167.640 35.333,170.500 35.333 C 173.360 35.333,174.818 35.276,174.750 35.167 C 174.686 35.063,173.085 35.000,170.500 35.000 C 167.915 35.000,166.314 35.063,166.250 35.167 M190.833 44.063 C 190.833 44.098,190.946 44.219,191.083 44.333 C 191.288 44.503,191.333 44.492,191.333 44.270 C 191.333 44.122,191.221 44.000,191.083 44.000 C 190.946 44.000,190.833 44.028,190.833 44.063 M314.333 59.839 C 314.333 60.054,314.446 60.167,314.661 60.167 C 314.877 60.167,314.958 60.085,314.899 59.930 C 314.747 59.535,314.333 59.469,314.333 59.839 M49.167 62.500 C 49.167 62.609,52.806 62.667,59.750 62.667 C 66.694 62.667,70.333 62.609,70.333 62.500 C 70.333 62.391,66.694 62.333,59.750 62.333 C 52.806 62.333,49.167 62.391,49.167 62.500 M46.259 70.318 C 46.120 70.544,46.337 71.000,46.583 71.000 C 46.787 71.000,47.000 70.652,47.000 70.320 C 47.000 70.121,46.382 70.120,46.259 70.318 M307.864 71.292 C 307.949 71.734,308.667 71.781,308.667 71.345 C 308.667 71.085,308.560 71.000,308.238 71.000 C 307.919 71.000,307.823 71.075,307.864 71.292 M58.704 98.706 L 58.750 101.583 65.583 101.583 L 72.417 101.583 72.417 98.750 L 72.417 95.917 65.538 95.873 L 58.659 95.830 58.704 98.706 M77.667 98.750 L 77.667 101.667 84.167 101.667 L 90.667 101.667 90.667 101.262 C 90.667 100.968,90.770 100.842,91.042 100.803 C 91.408 100.751,91.417 100.700,91.417 98.667 C 91.417 96.633,91.408 96.582,91.042 96.530 C 90.801 96.496,90.667 96.362,90.667 96.155 C 90.667 95.843,90.477 95.833,84.167 95.833 L 77.667 95.833 77.667 98.750 M96.552 96.151 C 96.507 96.326,96.326 96.507,96.151 96.552 C 95.658 96.681,95.662 100.833,96.155 100.833 C 96.362 100.833,96.496 100.967,96.530 101.208 L 96.583 101.583 103.083 101.583 L 109.583 101.583 109.629 98.708 L 109.675 95.833 103.155 95.833 C 96.881 95.833,96.632 95.845,96.552 96.151 M150.500 98.750 L 150.500 101.667 157.000 101.667 L 163.500 101.667 163.500 101.262 C 163.500 100.968,163.604 100.842,163.875 100.803 C 164.241 100.751,164.250 100.700,164.250 98.667 C 164.250 96.633,164.241 96.582,163.875 96.530 C 163.634 96.496,163.500 96.362,163.500 96.155 C 163.500 95.843,163.311 95.833,157.000 95.833 L 150.500 95.833 150.500 98.750 M193.500 96.155 C 193.500 96.362,193.366 96.496,193.125 96.530 C 192.761 96.582,192.749 96.648,192.703 98.708 L 192.657 100.833 193.078 100.833 C 193.417 100.833,193.500 100.915,193.500 101.250 L 193.500 101.667 200.000 101.667 L 206.500 101.667 206.500 98.750 L 206.500 95.833 200.000 95.833 C 193.689 95.833,193.500 95.843,193.500 96.155 M235.740 96.048 C 235.695 96.167,235.679 97.460,235.704 98.923 L 235.750 101.583 242.625 101.627 L 249.500 101.670 249.500 98.752 L 249.500 95.833 242.661 95.833 C 237.231 95.833,235.806 95.878,235.740 96.048 M254.667 98.750 L 254.667 101.667 261.155 101.667 L 267.643 101.667 267.697 101.292 C 267.731 101.051,267.884 100.898,268.125 100.863 C 268.492 100.811,268.500 100.763,268.500 98.655 L 268.500 96.500 268.083 96.500 C 267.778 96.500,267.667 96.411,267.667 96.167 C 267.667 95.839,267.556 95.833,261.167 95.833 L 254.667 95.833 254.667 98.750 M297.667 98.750 L 297.667 101.667 304.167 101.667 L 310.667 101.667 310.667 101.262 C 310.667 100.968,310.770 100.842,311.042 100.803 C 311.407 100.751,311.417 100.697,311.417 98.750 C 311.417 96.836,311.401 96.743,311.042 96.585 C 310.835 96.495,310.667 96.289,310.667 96.127 C 310.667 95.852,310.264 95.833,304.167 95.833 L 297.667 95.833 297.667 98.750 M340.667 96.155 C 340.667 96.362,340.533 96.496,340.292 96.530 C 339.928 96.582,339.915 96.648,339.870 98.708 L 339.823 100.833 340.245 100.833 C 340.584 100.833,340.667 100.915,340.667 101.250 L 340.667 101.667 347.167 101.667 L 353.667 101.667 353.667 98.750 L 353.667 95.833 347.167 95.833 C 340.856 95.833,340.667 95.843,340.667 96.155 M12.833 105.667 C 12.833 105.911,12.722 106.000,12.417 106.000 C 12.120 106.000,12.000 106.090,12.000 106.314 C 12.000 106.488,11.851 106.667,11.667 106.715 C 11.355 106.796,11.333 106.942,11.333 108.917 C 11.333 110.891,11.355 111.037,11.667 111.118 C 11.851 111.167,12.000 111.346,12.000 111.519 C 12.000 111.743,12.120 111.833,12.417 111.833 C 12.722 111.833,12.833 111.922,12.833 112.167 C 12.833 112.483,12.944 112.500,15.000 112.500 C 17.056 112.500,17.167 112.483,17.167 112.167 C 17.167 111.889,17.278 111.833,17.833 111.833 L 18.500 111.833 18.500 111.095 C 18.500 110.456,18.551 110.349,18.875 110.303 C 19.448 110.222,19.457 107.613,18.884 107.531 C 18.584 107.489,18.509 107.354,18.467 106.781 C 18.418 106.106,18.397 106.082,17.792 106.032 C 17.302 105.991,17.167 105.910,17.167 105.657 C 17.167 105.353,17.033 105.333,15.000 105.333 C 12.944 105.333,12.833 105.350,12.833 105.667 M24.382 105.667 C 24.313 105.928,24.154 106.000,23.647 106.000 L 23.000 106.000 23.000 106.738 C 23.000 107.377,22.949 107.484,22.625 107.530 C 22.272 107.580,22.250 107.661,22.250 108.917 C 22.250 110.172,22.272 110.253,22.625 110.303 C 22.949 110.349,23.000 110.456,23.000 111.095 L 23.000 111.833 23.655 111.833 C 24.164 111.833,24.334 111.908,24.417 112.167 C 24.515 112.476,24.669 112.500,26.583 112.500 C 28.498 112.500,28.652 112.476,28.750 112.167 C 28.808 111.983,29.001 111.833,29.178 111.833 C 29.382 111.833,29.500 111.719,29.500 111.519 C 29.500 111.346,29.649 111.167,29.833 111.118 C 30.144 111.037,30.167 110.891,30.167 108.944 C 30.167 107.002,30.143 106.848,29.833 106.750 C 29.650 106.692,29.500 106.499,29.500 106.322 C 29.500 106.118,29.385 106.000,29.186 106.000 C 29.012 106.000,28.833 105.851,28.785 105.667 C 28.704 105.355,28.558 105.333,26.583 105.333 C 24.609 105.333,24.463 105.355,24.382 105.667 M35.333 105.667 C 35.333 105.889,35.222 106.000,35.000 106.000 C 34.782 106.000,34.667 106.111,34.667 106.322 C 34.667 106.529,34.533 106.663,34.292 106.697 C 33.925 106.749,33.917 106.797,33.917 108.917 C 33.917 111.037,33.925 111.084,34.292 111.137 C 34.533 111.171,34.667 111.305,34.667 111.512 C 34.667 111.722,34.782 111.833,35.000 111.833 C 35.222 111.833,35.333 111.944,35.333 112.167 C 35.333 112.483,35.444 112.500,37.500 112.500 C 39.556 112.500,39.667 112.483,39.667 112.167 C 39.667 111.922,39.778 111.833,40.083 111.833 C 40.380 111.833,40.500 111.743,40.500 111.519 C 40.500 111.346,40.649 111.167,40.833 111.118 C 41.098 111.049,41.167 110.891,41.167 110.349 C 41.167 109.778,41.221 109.667,41.500 109.667 C 41.784 109.667,41.833 109.556,41.833 108.917 C 41.833 108.278,41.784 108.167,41.500 108.167 C 41.221 108.167,41.167 108.056,41.167 107.484 C 41.167 106.942,41.098 106.784,40.833 106.715 C 40.649 106.667,40.500 106.488,40.500 106.314 C 40.500 106.090,40.380 106.000,40.083 106.000 C 39.778 106.000,39.667 105.911,39.667 105.667 C 39.667 105.350,39.556 105.333,37.500 105.333 C 35.444 105.333,35.333 105.350,35.333 105.667 M128.667 105.667 C 128.667 105.911,128.556 106.000,128.250 106.000 C 127.953 106.000,127.833 106.090,127.833 106.314 C 127.833 106.488,127.684 106.667,127.500 106.715 C 127.235 106.784,127.167 106.942,127.167 107.484 C 127.167 108.056,127.112 108.167,126.833 108.167 C 126.549 108.167,126.500 108.278,126.500 108.917 C 126.500 109.556,126.549 109.667,126.833 109.667 C 127.117 109.667,127.167 109.778,127.167 110.417 C 127.167 111.056,127.216 111.167,127.500 111.167 C 127.722 111.167,127.833 111.278,127.833 111.500 C 127.833 111.744,127.944 111.833,128.250 111.833 C 128.556 111.833,128.667 111.922,128.667 112.167 C 128.667 112.483,128.778 112.500,130.833 112.500 C 132.889 112.500,133.000 112.483,133.000 112.167 C 133.000 111.944,133.111 111.833,133.333 111.833 C 133.556 111.833,133.667 111.722,133.667 111.500 C 133.667 111.284,133.778 111.167,133.982 111.167 C 134.430 111.167,134.500 110.862,134.500 108.917 C 134.500 106.971,134.430 106.667,133.982 106.667 C 133.778 106.667,133.667 106.549,133.667 106.333 C 133.667 106.111,133.556 106.000,133.333 106.000 C 133.111 106.000,133.000 105.889,133.000 105.667 C 133.000 105.350,132.889 105.333,130.833 105.333 C 128.778 105.333,128.667 105.350,128.667 105.667 M139.548 105.667 C 139.500 105.851,139.321 106.000,139.147 106.000 C 138.944 106.000,138.833 106.118,138.833 106.333 C 138.833 106.517,138.764 106.667,138.679 106.667 C 138.171 106.667,138.000 107.217,138.000 108.856 C 138.000 110.557,138.156 111.167,138.589 111.167 C 138.723 111.167,138.833 111.317,138.833 111.500 C 138.833 111.715,138.944 111.833,139.147 111.833 C 139.321 111.833,139.500 111.982,139.548 112.167 C 139.630 112.478,139.776 112.500,141.734 112.500 C 143.722 112.500,143.833 112.482,143.833 112.167 C 143.833 111.883,143.944 111.833,144.583 111.833 L 145.333 111.833 145.333 111.083 C 145.333 110.444,145.383 110.333,145.667 110.333 C 145.974 110.333,146.000 110.222,146.000 108.917 C 146.000 107.611,145.974 107.500,145.667 107.500 C 145.383 107.500,145.333 107.389,145.333 106.750 L 145.333 106.000 144.583 106.000 C 143.944 106.000,143.833 105.951,143.833 105.667 C 143.833 105.351,143.722 105.333,141.734 105.333 C 139.776 105.333,139.630 105.356,139.548 105.667 M169.548 105.667 C 169.492 105.882,169.321 106.000,169.064 106.000 C 168.756 106.000,168.667 106.090,168.667 106.397 C 168.667 106.654,168.549 106.825,168.333 106.882 C 168.023 106.963,168.000 107.109,168.000 108.984 C 168.000 110.889,168.018 111.000,168.333 111.000 C 168.578 111.000,168.667 111.111,168.667 111.417 C 168.667 111.750,168.750 111.833,169.083 111.833 C 169.313 111.833,169.650 111.983,169.833 112.167 C 170.126 112.459,170.389 112.500,171.974 112.500 C 173.570 112.500,173.817 112.461,174.083 112.167 C 174.249 111.983,174.561 111.833,174.776 111.833 C 175.082 111.833,175.167 111.743,175.167 111.417 C 175.167 111.120,175.257 111.000,175.481 111.000 C 175.885 111.000,175.995 110.568,175.998 108.969 C 176.000 107.551,175.806 106.833,175.421 106.833 C 175.261 106.833,175.167 106.679,175.167 106.417 C 175.167 106.120,175.076 106.000,174.853 106.000 C 174.679 106.000,174.500 105.851,174.452 105.667 C 174.370 105.353,174.224 105.333,172.000 105.333 C 169.776 105.333,169.630 105.353,169.548 105.667 M225.500 105.667 C 225.500 105.889,225.389 106.000,225.167 106.000 C 224.948 106.000,224.833 106.111,224.833 106.322 C 224.833 106.529,224.699 106.663,224.458 106.697 C 224.147 106.741,224.075 106.869,224.032 107.458 C 223.991 108.031,223.919 108.167,223.657 108.167 C 223.181 108.167,223.188 109.496,223.667 109.795 C 223.851 109.910,224.000 110.183,224.000 110.407 C 224.000 111.216,224.287 111.643,224.909 111.760 C 225.338 111.840,225.500 111.957,225.500 112.185 C 225.500 112.478,225.654 112.500,227.667 112.500 C 229.722 112.500,229.833 112.483,229.833 112.167 C 229.833 111.939,229.944 111.833,230.182 111.833 C 230.385 111.833,230.566 111.700,230.614 111.515 C 230.660 111.341,230.841 111.160,231.015 111.114 C 231.307 111.038,231.333 110.857,231.333 108.917 C 231.333 106.976,231.307 106.795,231.015 106.719 C 230.841 106.673,230.660 106.493,230.614 106.318 C 230.566 106.133,230.385 106.000,230.182 106.000 C 229.944 106.000,229.833 105.894,229.833 105.667 C 229.833 105.350,229.722 105.333,227.667 105.333 C 225.611 105.333,225.500 105.350,225.500 105.667 M286.715 105.667 C 286.667 105.851,286.488 106.000,286.314 106.000 C 286.118 106.000,286.000 106.118,286.000 106.314 C 286.000 106.487,285.862 106.664,285.693 106.708 C 285.048 106.877,285.047 110.956,285.692 111.125 C 285.861 111.169,286.000 111.347,286.000 111.519 C 286.000 111.716,286.118 111.833,286.314 111.833 C 286.488 111.833,286.667 111.982,286.715 112.167 C 286.796 112.478,286.942 112.500,288.901 112.500 C 290.889 112.500,291.000 112.482,291.000 112.167 C 291.000 111.883,291.111 111.833,291.750 111.833 L 292.500 111.833 292.500 111.083 C 292.500 110.460,292.553 110.333,292.814 110.333 C 293.172 110.333,293.329 109.902,293.329 108.917 C 293.329 107.931,293.172 107.500,292.814 107.500 C 292.553 107.500,292.500 107.373,292.500 106.750 L 292.500 106.000 291.750 106.000 C 291.111 106.000,291.000 105.951,291.000 105.667 C 291.000 105.351,290.889 105.333,288.901 105.333 C 286.942 105.333,286.796 105.356,286.715 105.667 M329.667 105.667 C 329.667 105.889,329.556 106.000,329.333 106.000 C 329.115 106.000,329.000 106.111,329.000 106.322 C 329.000 106.529,328.866 106.663,328.625 106.697 C 328.258 106.749,328.250 106.797,328.250 108.917 C 328.250 111.037,328.258 111.084,328.625 111.137 C 328.866 111.171,329.000 111.305,329.000 111.512 C 329.000 111.722,329.115 111.833,329.333 111.833 C 329.556 111.833,329.667 111.944,329.667 112.167 C 329.667 112.483,329.778 112.500,331.833 112.500 C 333.889 112.500,334.000 112.483,334.000 112.167 C 334.000 111.922,334.111 111.833,334.417 111.833 C 334.722 111.833,334.833 111.744,334.833 111.500 C 334.833 111.278,334.944 111.167,335.167 111.167 C 335.449 111.167,335.500 111.056,335.500 110.436 C 335.500 109.846,335.564 109.689,335.833 109.618 C 336.091 109.551,336.167 109.391,336.167 108.917 C 336.167 108.442,336.091 108.282,335.833 108.215 C 335.570 108.146,335.500 107.988,335.500 107.465 C 335.500 106.942,335.430 106.784,335.167 106.715 C 334.982 106.667,334.833 106.488,334.833 106.314 C 334.833 106.090,334.714 106.000,334.417 106.000 C 334.111 106.000,334.000 105.911,334.000 105.667 C 334.000 105.350,333.889 105.333,331.833 105.333 C 329.778 105.333,329.667 105.350,329.667 105.667 M359.548 105.667 C 359.500 105.851,359.321 106.000,359.147 106.000 C 358.951 106.000,358.833 106.118,358.833 106.314 C 358.833 106.488,358.684 106.667,358.500 106.715 C 358.189 106.796,358.167 106.942,358.167 108.917 C 358.167 110.891,358.189 111.037,358.500 111.118 C 358.684 111.167,358.833 111.346,358.833 111.519 C 358.833 111.719,358.951 111.833,359.155 111.833 C 359.333 111.833,359.525 111.983,359.583 112.167 C 359.744 112.673,363.817 112.682,363.949 112.176 C 364.010 111.943,364.205 111.837,364.642 111.801 C 365.229 111.752,365.252 111.725,365.301 111.042 C 365.342 110.484,365.418 110.333,365.658 110.333 C 366.052 110.333,366.167 110.014,366.167 108.917 C 366.167 107.819,366.052 107.500,365.658 107.500 C 365.418 107.500,365.342 107.349,365.301 106.792 C 365.252 106.108,365.229 106.082,364.642 106.033 C 364.205 105.996,364.010 105.891,363.949 105.658 C 363.817 105.151,359.681 105.159,359.548 105.667 M383.667 105.667 C 383.667 105.911,383.556 106.000,383.250 106.000 C 382.953 106.000,382.833 106.090,382.833 106.314 C 382.833 106.488,382.684 106.667,382.500 106.715 C 382.189 106.796,382.167 106.942,382.167 108.917 C 382.167 110.891,382.189 111.037,382.500 111.118 C 382.684 111.167,382.833 111.346,382.833 111.519 C 382.833 111.743,382.953 111.833,383.250 111.833 C 383.556 111.833,383.667 111.922,383.667 112.167 C 383.667 112.483,383.778 112.500,385.833 112.500 C 387.889 112.500,388.000 112.483,388.000 112.167 C 388.000 111.891,388.111 111.833,388.647 111.833 C 389.323 111.833,389.492 111.614,389.498 110.728 C 389.499 110.514,389.633 110.338,389.833 110.285 C 390.326 110.156,390.341 107.681,389.850 107.553 C 389.624 107.493,389.502 107.260,389.423 106.735 C 389.314 106.009,389.305 106.000,388.656 106.000 C 388.111 106.000,388.000 105.944,388.000 105.667 C 388.000 105.350,387.889 105.333,385.833 105.333 C 383.778 105.333,383.667 105.350,383.667 105.667 " stroke="none" fill="#fcbc04" fill-rule="evenodd"></path><path id="path2" d="" stroke="none" fill="#fcdc100" fill-rule="evenodd"></path><path id="path3" d="" stroke="none" fill="#fcdc100" fill-rule="evenodd"></path><path id="path4" d="" stroke="none" fill="#fcdc100" fill-rule="evenodd"></path></g></svg>