<svg id="svg" version="1.1" xmlns="http://www.w3.org/2000/svg" xmlns:xlink="http://www.w3.org/1999/xlink" width="400" height="300" viewBox="0, 0, 400,300"><g id="svgg"><path id="path0" d="M107.502 113.277 C 107.296 113.511,107.127 113.925,107.127 114.196 C 107.127 114.654,106.539 116.192,105.901 117.400 C 105.750 117.687,105.626 118.072,105.626 118.255 C 105.626 118.578,104.956 120.246,104.407 121.292 C 104.258 121.574,104.050 122.350,103.943 123.018 C 103.837 123.685,103.631 124.231,103.488 124.231 C 103.344 124.231,103.226 124.569,103.226 124.981 C 103.226 125.394,103.099 125.731,102.944 125.731 C 102.789 125.731,102.571 126.339,102.460 127.082 C 102.349 127.824,102.138 128.432,101.991 128.432 C 101.845 128.432,101.725 128.770,101.725 129.182 C 101.725 129.595,101.592 129.932,101.429 129.932 C 101.266 129.932,101.046 130.473,100.940 131.133 C 100.835 131.793,100.631 132.333,100.487 132.333 C 100.343 132.333,100.225 132.671,100.225 133.083 C 100.225 133.496,100.092 133.833,99.929 133.833 C 99.765 133.833,99.546 134.374,99.440 135.034 C 99.334 135.694,99.130 136.234,98.986 136.234 C 98.842 136.234,98.725 136.572,98.725 136.984 C 98.725 137.397,98.598 137.734,98.443 137.734 C 98.288 137.734,98.070 138.342,97.959 139.085 C 97.847 139.827,97.637 140.435,97.490 140.435 C 97.344 140.435,97.224 140.773,97.224 141.185 C 97.224 141.598,97.091 141.935,96.928 141.935 C 96.765 141.935,96.545 142.476,96.439 143.136 C 96.334 143.796,96.130 144.336,95.986 144.336 C 95.842 144.336,95.724 144.674,95.724 145.086 C 95.724 145.499,95.590 145.836,95.427 145.836 C 95.264 145.836,95.045 146.377,94.939 147.037 C 94.833 147.697,94.629 148.237,94.485 148.237 C 94.341 148.237,94.224 148.575,94.224 148.987 C 94.224 149.400,94.097 149.737,93.942 149.737 C 93.787 149.737,93.569 150.345,93.458 151.088 C 93.346 151.830,93.135 152.438,92.989 152.438 C 92.843 152.438,92.723 152.776,92.723 153.188 C 92.723 153.601,92.590 153.938,92.427 153.938 C 92.264 153.938,92.044 154.479,91.938 155.139 C 91.833 155.799,91.628 156.339,91.485 156.339 C 91.341 156.339,91.223 156.677,91.223 157.089 C 91.223 157.502,91.089 157.839,90.926 157.839 C 90.763 157.839,90.543 158.380,90.438 159.040 C 90.332 159.700,90.128 160.240,89.984 160.240 C 89.840 160.240,89.722 160.713,89.722 161.290 L 89.722 162.341 93.739 162.341 L 97.756 162.341 97.959 160.990 C 98.070 160.248,98.288 159.640,98.443 159.640 C 98.598 159.640,98.725 159.235,98.725 158.740 C 98.725 158.245,98.851 157.839,99.006 157.839 C 99.161 157.839,99.379 157.232,99.491 156.489 C 99.602 155.746,99.813 155.139,99.959 155.139 C 100.105 155.139,100.225 154.801,100.225 154.389 C 100.225 153.976,100.360 153.638,100.525 153.638 C 100.690 153.638,100.825 153.301,100.825 152.888 L 100.825 152.138 107.898 152.138 C 115.686 152.138,115.589 152.115,115.947 154.021 C 116.062 154.636,116.285 155.139,116.443 155.139 C 116.600 155.139,116.729 155.476,116.729 155.889 C 116.729 156.302,116.852 156.639,117.001 156.639 C 117.151 156.639,117.366 157.314,117.479 158.140 C 117.593 158.965,117.808 159.640,117.958 159.640 C 118.107 159.640,118.230 159.977,118.230 160.390 C 118.230 160.803,118.365 161.140,118.530 161.140 C 118.695 161.140,118.830 161.410,118.830 161.740 C 118.830 162.310,119.030 162.341,122.772 162.341 L 126.714 162.341 126.513 160.615 C 126.402 159.666,126.180 158.845,126.021 158.790 C 125.862 158.735,125.731 158.498,125.731 158.265 C 125.731 158.031,125.609 157.839,125.460 157.839 C 125.310 157.839,125.095 157.164,124.981 156.339 C 124.868 155.514,124.653 154.839,124.503 154.839 C 124.353 154.839,124.231 154.501,124.231 154.089 C 124.231 153.676,124.098 153.338,123.935 153.338 C 123.771 153.338,123.552 152.798,123.446 152.138 C 123.340 151.478,123.136 150.938,122.992 150.938 C 122.848 150.938,122.731 150.600,122.731 150.188 C 122.731 149.775,122.604 149.437,122.449 149.437 C 122.294 149.437,122.076 148.830,121.965 148.087 C 121.853 147.344,121.643 146.737,121.496 146.737 C 121.350 146.737,121.230 146.399,121.230 145.986 C 121.230 145.574,121.097 145.236,120.934 145.236 C 120.771 145.236,120.551 144.696,120.445 144.036 C 120.340 143.376,120.136 142.836,119.992 142.836 C 119.848 142.836,119.730 142.498,119.730 142.086 C 119.730 141.673,119.596 141.335,119.433 141.335 C 119.270 141.335,119.051 140.795,118.945 140.135 C 118.839 139.475,118.635 138.935,118.491 138.935 C 118.347 138.935,118.230 138.597,118.230 138.185 C 118.230 137.772,118.110 137.434,117.964 137.434 C 117.817 137.434,117.606 136.827,117.495 136.084 C 117.384 135.341,117.166 134.734,117.011 134.734 C 116.856 134.734,116.729 134.396,116.729 133.983 C 116.729 133.571,116.611 133.233,116.467 133.233 C 116.324 133.233,116.119 132.693,116.014 132.033 C 115.908 131.373,115.688 130.833,115.525 130.833 C 115.362 130.833,115.229 130.495,115.229 130.083 C 115.229 129.670,115.111 129.332,114.967 129.332 C 114.823 129.332,114.619 128.792,114.513 128.132 C 114.408 127.472,114.188 126.932,114.025 126.932 C 113.862 126.932,113.728 126.594,113.728 126.182 C 113.728 125.769,113.609 125.431,113.462 125.431 C 113.316 125.431,113.105 124.824,112.994 124.081 C 112.883 123.338,112.665 122.731,112.510 122.731 C 112.355 122.731,112.228 122.393,112.228 121.980 C 112.228 121.568,112.105 121.230,111.954 121.230 C 111.804 121.230,111.589 120.690,111.478 120.030 C 111.366 119.370,111.152 118.830,111.001 118.830 C 110.851 118.830,110.728 118.492,110.728 118.080 C 110.728 117.667,110.610 117.329,110.466 117.329 C 110.322 117.329,110.118 116.789,110.012 116.129 C 109.907 115.469,109.687 114.929,109.524 114.929 C 109.361 114.929,109.227 114.649,109.227 114.307 C 109.227 113.130,108.181 112.506,107.502 113.277 M253.563 119.710 C 251.822 119.993,250.863 120.332,250.863 120.665 C 250.863 120.811,250.588 120.930,250.253 120.930 C 249.918 120.930,249.566 121.133,249.471 121.380 C 249.376 121.628,249.115 121.830,248.890 121.830 C 248.216 121.830,246.661 123.561,246.467 124.528 C 246.368 125.025,246.168 125.431,246.024 125.431 C 245.880 125.431,245.761 125.761,245.761 126.164 C 245.761 126.567,245.626 126.980,245.461 127.082 C 245.291 127.187,245.161 128.685,245.161 130.550 L 245.161 133.833 242.911 133.833 L 240.660 133.833 240.660 136.534 L 240.660 139.235 242.911 139.235 L 245.161 139.235 245.161 150.756 C 245.161 160.984,245.215 162.297,245.636 162.459 C 246.253 162.695,251.571 162.695,252.189 162.459 C 252.610 162.297,252.663 160.984,252.663 150.756 L 252.663 139.235 255.964 139.235 L 259.265 139.235 259.265 136.534 L 259.265 133.833 255.964 133.833 L 252.663 133.833 252.663 130.833 C 252.663 129.032,252.783 127.832,252.963 127.832 C 253.128 127.832,253.263 127.564,253.263 127.238 C 253.263 126.854,253.529 126.576,254.014 126.455 C 254.426 126.351,254.764 126.146,254.764 125.999 C 254.764 125.852,255.090 125.731,255.489 125.731 C 255.888 125.731,256.293 125.563,256.389 125.356 C 256.529 125.056,256.599 125.056,256.739 125.356 C 256.835 125.563,257.308 125.731,257.789 125.731 C 258.271 125.731,258.665 125.866,258.665 126.032 C 258.665 126.197,259.002 126.332,259.415 126.332 L 260.165 126.332 260.165 123.031 L 260.165 119.730 259.309 119.730 C 258.838 119.730,257.656 119.676,256.683 119.610 C 255.710 119.544,254.306 119.589,253.563 119.710 M214.254 141.335 L 214.254 162.341 217.704 162.341 L 221.155 162.341 221.155 141.335 L 221.155 120.330 217.704 120.330 L 214.254 120.330 214.254 141.335 M230.158 122.881 L 230.158 124.831 228.507 124.831 L 226.857 124.831 226.857 126.782 L 226.857 128.732 228.507 128.732 L 230.158 128.732 230.158 130.533 L 230.158 132.333 232.258 132.333 L 234.359 132.333 234.359 130.533 L 234.359 128.732 236.009 128.732 L 237.659 128.732 237.659 126.782 L 237.659 124.831 236.009 124.831 L 234.359 124.831 234.359 122.881 L 234.359 120.930 232.258 120.930 L 230.158 120.930 230.158 122.881 M261.665 127.982 L 261.665 129.632 266.167 129.632 L 270.668 129.632 270.668 127.982 L 270.668 126.332 266.167 126.332 L 261.665 126.332 261.665 127.982 M108.464 132.220 C 108.576 132.818,108.783 133.527,108.923 133.795 C 109.608 135.112,110.128 136.538,110.128 137.105 C 110.128 137.451,110.263 137.734,110.428 137.734 C 110.593 137.734,110.728 138.072,110.728 138.485 C 110.728 138.897,110.850 139.235,111.000 139.235 C 111.149 139.235,111.364 139.910,111.478 140.735 C 111.591 141.560,111.807 142.236,111.956 142.236 C 112.106 142.236,112.228 142.573,112.228 142.986 C 112.228 143.398,112.346 143.736,112.490 143.736 C 112.634 143.736,112.836 144.265,112.939 144.911 C 113.043 145.557,113.296 146.154,113.503 146.238 C 113.709 146.321,111.347 146.400,108.252 146.413 C 104.685 146.428,102.626 146.327,102.626 146.137 C 102.626 145.971,102.761 145.836,102.926 145.836 C 103.091 145.836,103.226 145.566,103.226 145.236 C 103.226 144.906,103.348 144.636,103.498 144.636 C 103.647 144.636,103.862 143.961,103.976 143.136 C 104.089 142.311,104.305 141.635,104.454 141.635 C 104.604 141.635,104.726 141.298,104.726 140.885 C 104.726 140.473,104.849 140.135,104.998 140.135 C 105.148 140.135,105.363 139.460,105.476 138.635 C 105.590 137.809,105.805 137.134,105.955 137.134 C 106.104 137.134,106.227 136.797,106.227 136.384 C 106.227 135.971,106.349 135.634,106.498 135.634 C 106.648 135.634,106.863 134.959,106.977 134.134 C 107.090 133.308,107.305 132.633,107.455 132.633 C 107.605 132.633,107.727 132.296,107.727 131.883 C 107.727 130.752,108.232 130.983,108.464 132.220 M143.511 133.133 C 142.809 133.207,142.236 133.395,142.236 133.551 C 142.236 133.706,142.033 133.833,141.785 133.833 C 141.538 133.833,141.335 133.959,141.335 134.113 C 141.335 134.267,141.043 134.486,140.686 134.599 C 140.328 134.713,139.687 135.156,139.260 135.584 L 138.485 136.363 138.392 135.098 L 138.300 133.833 134.566 133.833 L 130.833 133.833 130.833 148.087 L 130.833 162.341 134.565 162.341 L 138.297 162.341 138.391 152.388 C 138.463 144.760,138.572 142.406,138.860 142.310 C 139.066 142.242,139.235 142.052,139.235 141.889 C 139.235 141.613,139.420 141.360,140.346 140.371 C 141.115 139.549,141.633 139.235,142.223 139.235 C 142.560 139.235,142.836 139.100,142.836 138.935 C 142.836 138.770,143.173 138.635,143.586 138.635 C 143.998 138.635,144.336 138.770,144.336 138.935 C 144.336 139.100,144.609 139.235,144.942 139.235 C 145.693 139.235,147.637 141.188,147.637 141.944 C 147.637 142.250,147.772 142.584,147.937 142.686 C 148.127 142.803,148.237 146.440,148.237 152.606 L 148.237 162.341 151.988 162.341 L 155.739 162.341 155.739 153.788 C 155.739 149.085,155.856 145.236,156.000 145.236 C 156.144 145.236,156.333 144.599,156.421 143.821 C 156.508 143.042,156.728 142.356,156.910 142.295 C 157.091 142.235,157.239 142.056,157.239 141.898 C 157.239 141.501,157.776 140.868,159.179 139.610 C 159.409 139.404,159.877 139.235,160.219 139.235 C 160.560 139.235,160.840 139.100,160.840 138.935 C 160.840 138.770,161.178 138.635,161.590 138.635 C 162.003 138.635,162.341 138.770,162.341 138.935 C 162.341 139.100,162.606 139.235,162.930 139.235 C 163.985 139.235,165.405 140.944,165.571 142.415 C 165.652 143.141,165.837 143.736,165.981 143.736 C 166.124 143.736,166.242 147.922,166.242 153.038 L 166.242 162.341 169.992 162.341 L 173.743 162.341 173.743 152.588 C 173.743 147.114,173.627 142.836,173.477 142.836 C 173.331 142.836,173.156 141.866,173.089 140.681 C 173.015 139.361,172.827 138.479,172.605 138.405 C 172.406 138.339,172.243 138.093,172.243 137.859 C 172.243 137.626,172.108 137.434,171.943 137.434 C 171.778 137.434,171.643 137.217,171.643 136.951 C 171.643 136.271,169.093 133.833,168.381 133.833 C 168.057 133.833,167.736 133.665,167.667 133.458 C 167.576 133.184,166.505 133.083,163.691 133.083 C 160.877 133.083,159.806 133.184,159.715 133.458 C 159.646 133.665,159.399 133.833,159.165 133.833 C 158.931 133.833,158.740 133.968,158.740 134.134 C 158.740 134.299,158.540 134.434,158.296 134.434 C 158.052 134.434,157.121 135.176,156.228 136.084 C 154.500 137.840,154.239 137.997,154.239 137.284 C 154.239 137.037,154.104 136.834,153.938 136.834 C 153.773 136.834,153.638 136.652,153.638 136.430 C 153.638 135.847,152.699 134.855,151.913 134.606 C 151.542 134.489,151.238 134.267,151.238 134.113 C 151.238 133.959,151.047 133.833,150.813 133.833 C 150.579 133.833,150.343 133.699,150.288 133.535 C 150.176 133.203,145.490 132.925,143.511 133.133 M193.773 133.132 C 193.155 133.208,192.648 133.396,192.648 133.551 C 192.648 133.707,192.436 133.833,192.177 133.833 C 191.917 133.833,191.503 134.036,191.255 134.284 C 191.007 134.531,190.554 134.734,190.246 134.734 C 189.939 134.734,189.602 135.004,189.497 135.334 C 189.393 135.664,189.191 135.934,189.048 135.934 C 188.906 135.934,188.578 136.146,188.319 136.406 C 187.890 136.834,187.847 136.739,187.847 135.355 L 187.847 133.833 184.096 133.833 L 180.345 133.833 180.345 154.539 L 180.345 175.244 184.096 175.244 L 187.847 175.244 187.847 167.416 L 187.847 159.588 188.892 160.664 C 189.467 161.256,190.131 161.740,190.367 161.740 C 190.604 161.740,190.847 161.889,190.908 162.070 C 190.968 162.251,191.654 162.471,192.433 162.559 C 193.211 162.647,193.848 162.836,193.848 162.980 C 193.848 163.123,194.389 163.241,195.049 163.241 C 195.709 163.241,196.249 163.124,196.249 162.980 C 196.249 162.837,197.286 162.653,198.553 162.572 C 200.437 162.451,200.952 162.307,201.377 161.782 C 201.663 161.429,202.058 161.140,202.256 161.140 C 202.760 161.140,205.743 158.055,205.989 157.279 C 206.101 156.927,206.318 156.639,206.472 156.639 C 206.626 156.639,206.752 156.437,206.752 156.189 C 206.752 155.941,206.874 155.739,207.024 155.739 C 207.173 155.739,207.388 155.064,207.502 154.239 C 207.615 153.413,207.831 152.738,207.980 152.738 C 208.130 152.738,208.252 151.868,208.252 150.805 C 208.252 149.742,208.387 148.789,208.552 148.687 C 208.717 148.585,208.852 147.978,208.852 147.337 C 208.852 146.696,208.717 146.088,208.552 145.986 C 208.387 145.884,208.252 144.999,208.252 144.018 C 208.252 143.038,208.134 142.236,207.991 142.236 C 207.847 142.236,207.640 141.560,207.530 140.735 C 207.421 139.910,207.201 139.235,207.041 139.235 C 206.882 139.235,206.752 139.032,206.752 138.785 C 206.752 138.537,206.617 138.335,206.452 138.335 C 206.287 138.335,206.152 138.138,206.152 137.899 C 206.152 137.332,203.254 134.434,202.686 134.434 C 202.447 134.434,202.251 134.299,202.251 134.134 C 202.251 133.968,201.924 133.833,201.525 133.833 C 201.127 133.833,200.755 133.697,200.699 133.530 C 200.589 133.199,195.580 132.911,193.773 133.132 M286.647 133.134 C 285.945 133.207,285.371 133.395,285.371 133.551 C 285.371 133.706,285.034 133.833,284.621 133.833 C 284.209 133.833,283.871 133.952,283.871 134.096 C 283.871 134.240,283.459 134.441,282.955 134.542 C 282.451 134.643,281.591 135.200,281.044 135.780 C 280.497 136.360,279.896 136.834,279.710 136.834 C 279.523 136.834,279.370 136.975,279.370 137.148 C 279.370 137.320,279.032 137.799,278.620 138.212 C 278.207 138.624,277.869 139.158,277.869 139.398 C 277.869 139.639,277.734 139.835,277.569 139.835 C 277.404 139.835,277.269 140.038,277.269 140.285 C 277.269 140.533,277.139 140.735,276.980 140.735 C 276.820 140.735,276.600 141.410,276.491 142.236 C 276.381 143.061,276.174 143.736,276.030 143.736 C 275.887 143.736,275.769 144.480,275.769 145.390 C 275.769 146.300,275.604 147.310,275.401 147.633 C 275.111 148.098,275.111 148.300,275.401 148.590 C 275.614 148.802,275.769 149.756,275.769 150.848 C 275.769 151.887,275.885 152.738,276.027 152.738 C 276.169 152.738,276.364 153.403,276.460 154.216 C 276.653 155.841,277.071 156.746,278.095 157.749 C 278.466 158.113,278.770 158.560,278.770 158.742 C 278.770 159.248,280.625 160.838,281.462 161.051 C 281.870 161.154,282.416 161.500,282.674 161.819 C 283.023 162.250,283.662 162.441,285.158 162.561 C 286.266 162.650,287.172 162.839,287.172 162.982 C 287.172 163.124,288.320 163.241,289.722 163.241 C 291.125 163.241,292.273 163.125,292.273 162.984 C 292.273 162.843,293.250 162.646,294.445 162.546 C 295.639 162.445,296.663 162.223,296.720 162.052 C 296.777 161.881,297.151 161.740,297.549 161.740 C 297.948 161.740,298.275 161.620,298.275 161.473 C 298.275 161.326,298.612 161.121,299.025 161.017 C 299.762 160.832,299.775 160.778,299.775 157.834 C 299.775 154.839,299.775 154.839,299.025 154.839 C 298.612 154.839,298.275 154.971,298.275 155.133 C 298.275 155.295,297.937 155.512,297.524 155.616 C 297.112 155.719,296.774 155.924,296.774 156.072 C 296.774 156.219,296.448 156.339,296.049 156.339 C 295.650 156.339,295.268 156.508,295.199 156.714 C 295.107 156.988,294.037 157.089,291.223 157.089 C 288.409 157.089,287.338 156.988,287.247 156.714 C 287.178 156.508,286.930 156.339,286.697 156.339 C 286.463 156.339,286.272 156.207,286.272 156.045 C 286.272 155.883,285.934 155.666,285.521 155.562 C 285.072 155.449,284.771 155.159,284.771 154.838 C 284.771 154.544,284.569 154.225,284.321 154.130 C 284.074 154.035,283.871 153.683,283.871 153.348 C 283.871 153.012,283.736 152.738,283.571 152.738 C 283.406 152.738,283.271 152.333,283.271 151.838 C 283.271 151.343,283.136 150.938,282.971 150.938 C 282.806 150.938,282.671 150.803,282.671 150.638 C 282.671 150.444,286.072 150.338,292.273 150.338 L 301.875 150.338 301.875 146.587 C 301.875 144.286,301.759 142.836,301.575 142.836 C 301.410 142.836,301.275 142.363,301.275 141.785 C 301.275 141.208,301.158 140.735,301.014 140.735 C 300.870 140.735,300.671 140.227,300.571 139.607 C 300.471 138.978,300.122 138.284,299.783 138.040 C 299.448 137.799,299.175 137.463,299.175 137.293 C 299.174 136.758,296.934 134.785,296.086 134.572 C 295.639 134.460,295.274 134.248,295.274 134.101 C 295.274 133.954,294.947 133.833,294.549 133.833 C 294.150 133.833,293.778 133.703,293.723 133.544 C 293.611 133.218,288.604 132.928,286.647 133.134 M318.380 133.533 C 318.380 133.698,318.181 133.833,317.937 133.833 C 317.362 133.833,314.779 136.417,314.779 136.992 C 314.779 137.235,314.644 137.434,314.479 137.434 C 314.312 137.434,314.179 136.634,314.179 135.634 L 314.179 133.833 310.728 133.833 L 307.277 133.833 307.277 148.237 L 307.277 162.641 310.728 162.641 L 314.179 162.641 314.179 154.689 C 314.179 149.587,314.286 146.737,314.479 146.737 C 314.644 146.737,314.779 146.272,314.779 145.704 C 314.779 145.136,314.896 144.599,315.040 144.510 C 315.184 144.421,315.382 143.945,315.481 143.451 C 315.579 142.958,316.238 141.976,316.945 141.270 L 318.230 139.985 321.305 140.028 L 324.381 140.072 324.381 137.081 C 324.381 134.890,324.267 133.976,323.952 133.662 C 323.445 133.154,318.380 133.037,318.380 133.533 M228.657 148.237 L 228.657 162.641 231.933 162.641 C 233.735 162.641,235.423 162.559,235.684 162.459 C 236.108 162.296,236.159 160.746,236.159 148.055 L 236.159 133.833 232.408 133.833 L 228.657 133.833 228.657 148.237 M262.866 148.237 L 262.866 162.641 266.317 162.641 L 269.767 162.641 269.767 148.237 L 269.767 133.833 266.317 133.833 L 262.866 133.833 262.866 148.237 M195.349 138.935 C 195.349 139.100,195.754 139.235,196.249 139.235 C 196.744 139.235,197.149 139.370,197.149 139.535 C 197.149 139.700,197.371 139.835,197.642 139.835 C 198.298 139.835,199.784 141.419,200.024 142.374 C 200.129 142.793,200.335 143.136,200.483 143.136 C 200.630 143.136,200.750 143.811,200.750 144.636 C 200.750 145.461,200.885 146.137,201.050 146.137 C 201.215 146.137,201.350 146.744,201.350 147.487 C 201.350 148.230,201.215 148.837,201.050 148.837 C 200.885 148.837,200.750 149.512,200.750 150.338 C 200.750 151.163,200.615 151.838,200.450 151.838 C 200.285 151.838,200.150 152.166,200.150 152.567 C 200.150 152.968,199.947 153.498,199.700 153.746 C 199.452 153.993,199.250 154.283,199.250 154.390 C 199.250 154.702,197.525 156.339,197.197 156.339 C 197.033 156.339,196.843 156.508,196.774 156.714 C 196.565 157.342,191.446 157.161,191.083 156.514 C 190.927 156.234,190.473 155.882,190.073 155.730 C 189.674 155.578,189.347 155.255,189.347 155.013 C 189.347 154.771,189.044 154.360,188.672 154.100 C 187.866 153.535,187.588 143.472,188.372 143.211 C 188.578 143.142,188.747 142.894,188.747 142.661 C 188.747 142.427,188.882 142.236,189.047 142.236 C 189.212 142.236,189.347 142.054,189.347 141.831 C 189.347 141.248,190.286 140.256,191.073 140.008 C 191.444 139.890,191.748 139.669,191.748 139.515 C 191.748 139.361,192.221 139.235,192.798 139.235 C 193.376 139.235,193.848 139.100,193.848 138.935 C 193.848 138.770,194.186 138.635,194.599 138.635 C 195.011 138.635,195.349 138.770,195.349 138.935 M292.883 140.116 C 294.202 141.435,294.385 141.779,294.560 143.267 L 294.756 144.936 288.638 144.913 C 285.274 144.900,282.689 144.821,282.896 144.738 C 283.102 144.654,283.271 144.260,283.271 143.861 C 283.271 143.462,283.391 143.136,283.538 143.136 C 283.686 143.136,283.893 142.788,284.000 142.362 C 284.207 141.539,286.305 139.235,286.848 139.235 C 287.026 139.235,287.172 139.100,287.172 138.935 C 287.172 138.763,288.077 138.635,289.287 138.635 L 291.401 138.635 292.883 140.116 " stroke="none" fill="#fcfcfc" fill-rule="evenodd"></path><path id="path1" d="M132.719 133.755 C 133.674 133.815,135.160 133.815,136.020 133.754 C 136.880 133.694,136.099 133.645,134.284 133.646 C 132.468 133.646,131.764 133.696,132.719 133.755 M182.371 133.755 C 183.237 133.815,184.655 133.815,185.521 133.755 C 186.388 133.694,185.679 133.644,183.946 133.644 C 182.213 133.644,181.504 133.694,182.371 133.755 M104.351 152.362 C 106.373 152.414,109.681 152.414,111.703 152.362 C 113.725 152.310,112.071 152.268,108.027 152.268 C 103.983 152.268,102.329 152.310,104.351 152.362 M107.127 177.194 L 107.127 179.145 111.928 179.145 L 116.729 179.145 116.729 177.194 L 116.729 175.244 111.928 175.244 L 107.127 175.244 107.127 177.194 M120.330 177.202 L 120.330 179.160 124.906 179.078 L 129.482 178.995 129.578 177.823 C 129.794 175.185,129.903 175.244,124.825 175.244 L 120.330 175.244 120.330 177.202 M133.008 175.693 C 132.448 176.329,132.521 178.738,133.108 178.963 C 133.369 179.063,135.529 179.145,137.909 179.145 L 142.236 179.145 142.236 177.194 L 142.236 175.244 137.809 175.255 C 134.373 175.264,133.299 175.362,133.008 175.693 M170.143 177.194 L 170.143 179.145 174.469 179.145 C 179.766 179.145,179.745 179.151,179.745 177.441 C 179.745 175.335,179.527 175.244,174.515 175.244 L 170.143 175.244 170.143 177.194 M199.625 175.693 C 199.064 176.329,199.138 178.738,199.724 178.963 C 199.986 179.063,202.146 179.145,204.526 179.145 L 208.852 179.145 208.852 177.194 L 208.852 175.244 204.426 175.255 C 200.990 175.264,199.916 175.362,199.625 175.693 M228.657 177.194 L 228.657 179.145 233.458 179.145 L 238.260 179.145 238.260 177.194 L 238.260 175.244 233.458 175.244 L 228.657 175.244 228.657 177.194 M241.860 177.202 L 241.860 179.160 246.437 179.078 L 251.013 178.995 251.109 177.823 C 251.325 175.185,251.433 175.244,246.356 175.244 L 241.860 175.244 241.860 177.202 M271.268 177.194 L 271.268 179.145 275.709 179.145 C 280.627 179.145,280.876 179.059,280.861 177.359 C 280.843 175.348,280.587 175.244,275.661 175.244 L 271.268 175.244 271.268 177.194 M300.510 175.948 C 300.413 176.335,300.376 177.179,300.429 177.823 L 300.525 178.995 305.101 179.078 L 309.677 179.160 309.677 177.202 L 309.677 175.244 305.182 175.244 C 300.716 175.244,300.685 175.248,300.510 175.948 M75.244 182.471 C 73.200 184.710,75.409 187.154,78.855 186.465 C 80.310 186.173,80.627 182.446,79.196 182.446 C 78.879 182.446,78.620 182.311,78.620 182.146 C 78.620 181.580,75.810 181.851,75.244 182.471 M83.721 182.146 C 83.721 182.311,83.518 182.446,83.271 182.446 C 83.023 182.446,82.821 182.648,82.821 182.896 C 82.821 183.143,82.686 183.346,82.521 183.346 C 82.356 183.346,82.221 183.751,82.221 184.246 C 82.221 184.741,82.356 185.146,82.521 185.146 C 82.686 185.146,82.821 185.401,82.821 185.711 C 82.821 186.697,86.260 187.065,87.150 186.175 C 87.866 185.459,87.782 183.016,87.018 182.362 C 86.362 181.800,83.721 181.627,83.721 182.146 M90.848 182.414 C 90.166 183.105,90.132 185.513,90.794 186.175 C 91.862 187.243,95.124 186.565,95.124 185.275 C 95.124 185.039,95.259 184.846,95.424 184.846 C 95.589 184.846,95.724 184.644,95.724 184.396 C 95.724 184.149,95.589 183.946,95.424 183.946 C 95.259 183.946,95.124 183.706,95.124 183.413 C 95.124 181.982,91.994 181.251,90.848 182.414 M154.764 182.471 C 154.475 182.787,154.239 183.237,154.239 183.471 C 154.239 183.705,154.085 183.947,153.898 184.010 C 153.543 184.128,153.917 184.967,154.830 186.099 C 155.443 186.858,157.813 186.851,158.694 186.086 C 159.596 185.304,159.628 182.877,158.740 182.596 C 158.410 182.491,158.140 182.279,158.140 182.125 C 158.140 181.575,155.318 181.863,154.764 182.471 M162.266 182.471 C 160.221 184.710,162.431 187.154,165.877 186.465 C 167.332 186.173,167.649 182.446,166.218 182.446 C 165.901 182.446,165.641 182.311,165.641 182.146 C 165.641 181.580,162.832 181.851,162.266 182.471 M182.821 182.627 C 181.194 184.482,182.347 186.647,184.962 186.647 C 187.035 186.647,187.847 185.997,187.847 184.340 C 187.847 181.966,184.423 180.799,182.821 182.627 M221.380 182.414 C 221.092 182.706,220.855 183.160,220.855 183.421 C 220.855 183.682,220.693 183.950,220.495 184.016 C 220.018 184.175,220.959 186.207,221.629 186.464 C 223.886 187.330,225.656 186.376,225.656 184.291 C 225.656 182.040,222.930 180.842,221.380 182.414 M263.391 182.414 C 262.709 183.105,262.675 185.513,263.337 186.175 C 264.227 187.065,267.667 186.697,267.667 185.711 C 267.667 185.401,267.802 185.146,267.967 185.146 C 268.132 185.146,268.267 184.741,268.267 184.246 C 268.267 183.751,268.132 183.346,267.967 183.346 C 267.802 183.346,267.667 183.143,267.667 182.896 C 267.667 182.648,267.464 182.446,267.217 182.446 C 266.969 182.446,266.767 182.311,266.767 182.146 C 266.767 181.610,263.964 181.832,263.391 182.414 M292.798 182.471 C 290.597 184.881,294.311 188.183,296.798 186.026 C 297.570 185.356,297.792 183.035,297.106 182.806 C 296.917 182.743,296.573 182.502,296.340 182.269 C 295.709 181.638,293.441 181.767,292.798 182.471 M313.878 182.125 C 313.878 182.279,313.608 182.491,313.278 182.596 C 312.390 182.877,312.422 185.304,313.324 186.086 C 314.328 186.957,317.779 186.779,317.779 185.857 C 317.779 185.627,317.935 185.190,318.124 184.886 C 318.529 184.238,317.891 182.446,317.256 182.446 C 317.049 182.446,316.879 182.311,316.879 182.146 C 316.879 181.980,316.204 181.845,315.379 181.845 C 314.554 181.845,313.878 181.971,313.878 182.125 M330.383 182.125 C 330.383 182.279,330.113 182.491,329.782 182.596 C 328.894 182.877,328.926 185.304,329.828 186.086 C 330.832 186.957,334.284 186.779,334.284 185.857 C 334.284 185.627,334.439 185.190,334.628 184.886 C 335.033 184.238,334.396 182.446,333.760 182.446 C 333.553 182.446,333.383 182.311,333.383 182.146 C 333.383 181.980,332.708 181.845,331.883 181.845 C 331.058 181.845,330.383 181.971,330.383 182.125 " stroke="none" fill="#fcbc04" fill-rule="evenodd"></path></g></svg>