<svg id="svg" version="1.1" xmlns="http://www.w3.org/2000/svg" xmlns:xlink="http://www.w3.org/1999/xlink" width="400" height="400" viewBox="0, 0, 400,400"><g id="svgg"><path id="path0" d="M45.200 197.621 C 45.200 198.170,198.630 351.600,199.180 351.600 C 199.472 351.600,199.600 328.048,199.600 274.400 L 199.600 197.200 122.400 197.200 C 68.680 197.200,45.200 197.328,45.200 197.621 " stroke="none" fill="#04acf4" fill-rule="evenodd"></path><path id="path1" d="M121.900 113.206 C 79.715 155.420,45.200 190.148,45.200 190.379 C 45.200 190.672,68.686 190.800,122.400 190.800 L 199.600 190.800 199.600 113.600 C 199.600 52.092,199.498 36.405,199.100 36.427 C 198.825 36.441,164.085 70.992,121.900 113.206 " stroke="none" fill="#fcbc04" fill-rule="evenodd"></path><path id="path2" d="M205.600 113.600 L 205.600 190.800 283.000 190.800 C 349.915 190.800,360.400 190.722,360.400 190.227 C 360.400 189.912,360.049 189.543,359.620 189.406 C 359.192 189.270,358.733 188.817,358.600 188.400 C 358.467 187.983,358.017 187.533,357.600 187.400 C 357.183 187.267,356.733 186.817,356.600 186.400 C 356.467 185.983,356.017 185.533,355.600 185.400 C 355.183 185.267,354.733 184.817,354.600 184.400 C 354.467 183.983,354.017 183.533,353.600 183.400 C 353.183 183.267,352.733 182.817,352.600 182.400 C 352.467 181.983,352.017 181.533,351.600 181.400 C 351.183 181.267,350.733 180.817,350.600 180.400 C 350.467 179.983,350.017 179.533,349.600 179.400 C 349.183 179.267,348.733 178.817,348.600 178.400 C 348.467 177.983,348.017 177.533,347.600 177.400 C 347.183 177.267,346.733 176.817,346.600 176.400 C 346.467 175.983,346.017 175.533,345.600 175.400 C 345.183 175.267,344.733 174.817,344.600 174.400 C 344.467 173.983,344.017 173.533,343.600 173.400 C 343.183 173.267,342.733 172.817,342.600 172.400 C 342.467 171.983,342.017 171.533,341.600 171.400 C 341.183 171.267,340.733 170.817,340.600 170.400 C 340.467 169.983,340.017 169.533,339.600 169.400 C 339.183 169.267,338.733 168.817,338.600 168.400 C 338.467 167.983,338.017 167.533,337.600 167.400 C 337.183 167.267,336.733 166.817,336.600 166.400 C 336.467 165.983,336.017 165.533,335.600 165.400 C 335.183 165.267,334.733 164.817,334.600 164.400 C 334.467 163.983,334.017 163.533,333.600 163.400 C 333.183 163.267,332.733 162.817,332.600 162.400 C 332.467 161.983,332.017 161.533,331.600 161.400 C 331.183 161.267,330.733 160.817,330.600 160.400 C 330.467 159.983,330.017 159.533,329.600 159.400 C 329.183 159.267,328.733 158.817,328.600 158.400 C 328.467 157.983,328.017 157.533,327.600 157.400 C 327.183 157.267,326.733 156.817,326.600 156.400 C 326.467 155.983,326.017 155.533,325.600 155.400 C 325.183 155.267,324.733 154.817,324.600 154.400 C 324.467 153.983,324.017 153.533,323.600 153.400 C 323.183 153.267,322.733 152.817,322.600 152.400 C 322.467 151.983,322.017 151.533,321.600 151.400 C 321.183 151.267,320.733 150.817,320.600 150.400 C 320.467 149.983,320.017 149.533,319.600 149.400 C 319.183 149.267,318.733 148.817,318.600 148.400 C 318.467 147.983,318.017 147.533,317.600 147.400 C 317.183 147.267,316.733 146.817,316.600 146.400 C 316.467 145.983,316.017 145.533,315.600 145.400 C 315.183 145.267,314.733 144.817,314.600 144.400 C 314.467 143.983,314.017 143.533,313.600 143.400 C 313.183 143.267,312.733 142.817,312.600 142.400 C 312.467 141.983,312.017 141.533,311.600 141.400 C 311.183 141.267,310.733 140.817,310.600 140.400 C 310.467 139.983,310.017 139.533,309.600 139.400 C 309.183 139.267,308.733 138.817,308.600 138.400 C 308.467 137.983,308.017 137.533,307.600 137.400 C 307.183 137.267,306.733 136.817,306.600 136.400 C 306.467 135.983,306.017 135.533,305.600 135.400 C 305.183 135.267,304.733 134.817,304.600 134.400 C 304.467 133.983,304.017 133.533,303.600 133.400 C 303.183 133.267,302.733 132.817,302.600 132.400 C 302.467 131.983,302.017 131.533,301.600 131.400 C 301.183 131.267,300.733 130.817,300.600 130.400 C 300.467 129.983,300.017 129.533,299.600 129.400 C 299.183 129.267,298.733 128.817,298.600 128.400 C 298.467 127.983,298.017 127.533,297.600 127.400 C 297.183 127.267,296.733 126.817,296.600 126.400 C 296.467 125.983,296.017 125.533,295.600 125.400 C 295.183 125.267,294.733 124.817,294.600 124.400 C 294.467 123.983,294.017 123.533,293.600 123.400 C 293.183 123.267,292.733 122.817,292.600 122.400 C 292.467 121.983,292.017 121.533,291.600 121.400 C 291.183 121.267,290.733 120.817,290.600 120.400 C 290.467 119.983,290.017 119.533,289.600 119.400 C 289.183 119.267,288.733 118.817,288.600 118.400 C 288.467 117.983,288.017 117.533,287.600 117.400 C 287.183 117.267,286.733 116.817,286.600 116.400 C 286.467 115.983,286.017 115.533,285.600 115.400 C 285.183 115.267,284.733 114.817,284.600 114.400 C 284.467 113.983,284.017 113.533,283.600 113.400 C 283.183 113.267,282.733 112.817,282.600 112.400 C 282.467 111.983,282.017 111.533,281.600 111.400 C 281.183 111.267,280.733 110.817,280.600 110.400 C 280.467 109.983,280.017 109.533,279.600 109.400 C 279.183 109.267,278.733 108.817,278.600 108.400 C 278.467 107.983,278.017 107.533,277.600 107.400 C 277.183 107.267,276.733 106.817,276.600 106.400 C 276.467 105.983,276.017 105.533,275.600 105.400 C 275.183 105.267,274.733 104.817,274.600 104.400 C 274.467 103.983,274.017 103.533,273.600 103.400 C 273.183 103.267,272.733 102.817,272.600 102.400 C 272.467 101.983,272.017 101.533,271.600 101.400 C 271.183 101.267,270.733 100.817,270.600 100.400 C 270.467 99.983,270.017 99.533,269.600 99.400 C 269.183 99.267,268.733 98.817,268.600 98.400 C 268.467 97.983,268.017 97.533,267.600 97.400 C 267.183 97.267,266.733 96.817,266.600 96.400 C 266.467 95.983,266.017 95.533,265.600 95.400 C 265.183 95.267,264.733 94.817,264.600 94.400 C 264.467 93.983,264.017 93.533,263.600 93.400 C 263.183 93.267,262.733 92.817,262.600 92.400 C 262.467 91.983,262.017 91.533,261.600 91.400 C 261.183 91.267,260.733 90.817,260.600 90.400 C 260.467 89.983,260.017 89.533,259.600 89.400 C 259.183 89.267,258.733 88.817,258.600 88.400 C 258.467 87.983,258.017 87.533,257.600 87.400 C 257.183 87.267,256.733 86.817,256.600 86.400 C 256.467 85.983,256.017 85.533,255.600 85.400 C 255.183 85.267,254.733 84.817,254.600 84.400 C 254.467 83.983,254.017 83.533,253.600 83.400 C 253.183 83.267,252.733 82.817,252.600 82.400 C 252.467 81.983,252.017 81.533,251.600 81.400 C 251.183 81.267,250.733 80.817,250.600 80.400 C 250.467 79.983,250.017 79.533,249.600 79.400 C 249.183 79.267,248.733 78.817,248.600 78.400 C 248.467 77.983,248.017 77.533,247.600 77.400 C 247.183 77.267,246.733 76.817,246.600 76.400 C 246.467 75.983,246.017 75.533,245.600 75.400 C 245.183 75.267,244.733 74.817,244.600 74.400 C 244.467 73.983,244.017 73.533,243.600 73.400 C 243.183 73.267,242.733 72.817,242.600 72.400 C 242.467 71.983,242.017 71.533,241.600 71.400 C 241.183 71.267,240.733 70.817,240.600 70.400 C 240.467 69.983,240.017 69.533,239.600 69.400 C 239.183 69.267,238.733 68.817,238.600 68.400 C 238.467 67.983,238.017 67.533,237.600 67.400 C 237.183 67.267,236.733 66.817,236.600 66.400 C 236.467 65.983,236.017 65.533,235.600 65.400 C 235.183 65.267,234.733 64.817,234.600 64.400 C 234.467 63.983,234.017 63.533,233.600 63.400 C 233.183 63.267,232.733 62.817,232.600 62.400 C 232.467 61.983,232.017 61.533,231.600 61.400 C 231.183 61.267,230.733 60.817,230.600 60.400 C 230.467 59.983,230.017 59.533,229.600 59.400 C 229.183 59.267,228.733 58.817,228.600 58.400 C 228.467 57.983,228.017 57.533,227.600 57.400 C 227.183 57.267,226.733 56.817,226.600 56.400 C 226.467 55.983,226.017 55.533,225.600 55.400 C 225.183 55.267,224.733 54.817,224.600 54.400 C 224.467 53.983,224.017 53.533,223.600 53.400 C 223.183 53.267,222.733 52.817,222.600 52.400 C 222.467 51.983,222.017 51.533,221.600 51.400 C 221.183 51.267,220.733 50.817,220.600 50.400 C 220.467 49.983,220.017 49.533,219.600 49.400 C 219.183 49.267,218.733 48.817,218.600 48.400 C 218.467 47.983,218.017 47.533,217.600 47.400 C 217.183 47.267,216.733 46.817,216.600 46.400 C 216.467 45.983,216.017 45.533,215.600 45.400 C 215.183 45.267,214.733 44.817,214.600 44.400 C 214.467 43.983,214.017 43.533,213.600 43.400 C 213.183 43.267,212.733 42.817,212.600 42.400 C 212.467 41.983,212.017 41.533,211.600 41.400 C 211.183 41.267,210.733 40.817,210.600 40.400 C 210.467 39.983,210.017 39.533,209.600 39.400 C 209.183 39.267,208.733 38.817,208.600 38.400 C 208.467 37.983,208.008 37.530,207.580 37.394 C 207.151 37.257,206.800 36.978,206.800 36.773 C 206.800 36.568,206.530 36.400,206.200 36.400 C 205.669 36.400,205.600 45.244,205.600 113.600 " stroke="none" fill="#44bc34" fill-rule="evenodd"></path><path id="path3" d="M205.600 274.400 C 205.600 342.756,205.669 351.600,206.200 351.600 C 206.530 351.600,206.800 351.432,206.800 351.227 C 206.800 351.022,207.151 350.743,207.580 350.606 C 208.008 350.470,208.467 350.017,208.600 349.600 C 208.733 349.183,209.183 348.733,209.600 348.600 C 210.017 348.467,210.467 348.017,210.600 347.600 C 210.733 347.183,211.183 346.733,211.600 346.600 C 212.017 346.467,212.467 346.017,212.600 345.600 C 212.733 345.183,213.183 344.733,213.600 344.600 C 214.017 344.467,214.467 344.017,214.600 343.600 C 214.733 343.183,215.183 342.733,215.600 342.600 C 216.017 342.467,216.467 342.017,216.600 341.600 C 216.733 341.183,217.183 340.733,217.600 340.600 C 218.017 340.467,218.467 340.017,218.600 339.600 C 218.733 339.183,219.183 338.733,219.600 338.600 C 220.017 338.467,220.467 338.017,220.600 337.600 C 220.733 337.183,221.183 336.733,221.600 336.600 C 222.017 336.467,222.467 336.017,222.600 335.600 C 222.733 335.183,223.183 334.733,223.600 334.600 C 224.017 334.467,224.467 334.017,224.600 333.600 C 224.733 333.183,225.183 332.733,225.600 332.600 C 226.017 332.467,226.467 332.017,226.600 331.600 C 226.733 331.183,227.183 330.733,227.600 330.600 C 228.017 330.467,228.467 330.017,228.600 329.600 C 228.733 329.183,229.183 328.733,229.600 328.600 C 230.017 328.467,230.467 328.017,230.600 327.600 C 230.733 327.183,231.183 326.733,231.600 326.600 C 232.017 326.467,232.467 326.017,232.600 325.600 C 232.733 325.183,233.183 324.733,233.600 324.600 C 234.017 324.467,234.467 324.017,234.600 323.600 C 234.733 323.183,235.183 322.733,235.600 322.600 C 236.017 322.467,236.467 322.017,236.600 321.600 C 236.733 321.183,237.183 320.733,237.600 320.600 C 238.017 320.467,238.467 320.017,238.600 319.600 C 238.733 319.183,239.183 318.733,239.600 318.600 C 240.017 318.467,240.467 318.017,240.600 317.600 C 240.733 317.183,241.183 316.733,241.600 316.600 C 242.017 316.467,242.467 316.017,242.600 315.600 C 242.733 315.183,243.183 314.733,243.600 314.600 C 244.017 314.467,244.467 314.017,244.600 313.600 C 244.733 313.183,245.183 312.733,245.600 312.600 C 246.017 312.467,246.467 312.017,246.600 311.600 C 246.733 311.183,247.183 310.733,247.600 310.600 C 248.017 310.467,248.467 310.017,248.600 309.600 C 248.733 309.183,249.183 308.733,249.600 308.600 C 250.017 308.467,250.467 308.017,250.600 307.600 C 250.733 307.183,251.183 306.733,251.600 306.600 C 252.017 306.467,252.467 306.017,252.600 305.600 C 252.733 305.183,253.183 304.733,253.600 304.600 C 254.017 304.467,254.467 304.017,254.600 303.600 C 254.733 303.183,255.183 302.733,255.600 302.600 C 256.017 302.467,256.467 302.017,256.600 301.600 C 256.733 301.183,257.183 300.733,257.600 300.600 C 258.017 300.467,258.467 300.017,258.600 299.600 C 258.733 299.183,259.183 298.733,259.600 298.600 C 260.017 298.467,260.467 298.017,260.600 297.600 C 260.733 297.183,261.183 296.733,261.600 296.600 C 262.017 296.467,262.467 296.017,262.600 295.600 C 262.733 295.183,263.183 294.733,263.600 294.600 C 264.017 294.467,264.467 294.017,264.600 293.600 C 264.733 293.183,265.183 292.733,265.600 292.600 C 266.017 292.467,266.467 292.017,266.600 291.600 C 266.733 291.183,267.183 290.733,267.600 290.600 C 268.017 290.467,268.467 290.017,268.600 289.600 C 268.733 289.183,269.183 288.733,269.600 288.600 C 270.017 288.467,270.467 288.017,270.600 287.600 C 270.733 287.183,271.183 286.733,271.600 286.600 C 272.017 286.467,272.467 286.017,272.600 285.600 C 272.733 285.183,273.183 284.733,273.600 284.600 C 274.017 284.467,274.467 284.017,274.600 283.600 C 274.733 283.183,275.183 282.733,275.600 282.600 C 276.017 282.467,276.467 282.017,276.600 281.600 C 276.733 281.183,277.183 280.733,277.600 280.600 C 278.017 280.467,278.467 280.017,278.600 279.600 C 278.733 279.183,279.183 278.733,279.600 278.600 C 280.017 278.467,280.467 278.017,280.600 277.600 C 280.733 277.183,281.183 276.733,281.600 276.600 C 282.017 276.467,282.467 276.017,282.600 275.600 C 282.733 275.183,283.183 274.733,283.600 274.600 C 284.017 274.467,284.467 274.017,284.600 273.600 C 284.733 273.183,285.183 272.733,285.600 272.600 C 286.017 272.467,286.467 272.017,286.600 271.600 C 286.733 271.183,287.183 270.733,287.600 270.600 C 288.017 270.467,288.467 270.017,288.600 269.600 C 288.733 269.183,289.183 268.733,289.600 268.600 C 290.017 268.467,290.467 268.017,290.600 267.600 C 290.733 267.183,291.183 266.733,291.600 266.600 C 292.017 266.467,292.467 266.017,292.600 265.600 C 292.733 265.183,293.183 264.733,293.600 264.600 C 294.017 264.467,294.467 264.017,294.600 263.600 C 294.733 263.183,295.183 262.733,295.600 262.600 C 296.017 262.467,296.467 262.017,296.600 261.600 C 296.733 261.183,297.183 260.733,297.600 260.600 C 298.017 260.467,298.467 260.017,298.600 259.600 C 298.733 259.183,299.183 258.733,299.600 258.600 C 300.017 258.467,300.467 258.017,300.600 257.600 C 300.733 257.183,301.183 256.733,301.600 256.600 C 302.017 256.467,302.467 256.017,302.600 255.600 C 302.733 255.183,303.183 254.733,303.600 254.600 C 304.017 254.467,304.467 254.017,304.600 253.600 C 304.733 253.183,305.183 252.733,305.600 252.600 C 306.017 252.467,306.467 252.017,306.600 251.600 C 306.733 251.183,307.183 250.733,307.600 250.600 C 308.017 250.467,308.467 250.017,308.600 249.600 C 308.733 249.183,309.183 248.733,309.600 248.600 C 310.017 248.467,310.467 248.017,310.600 247.600 C 310.733 247.183,311.183 246.733,311.600 246.600 C 312.017 246.467,312.467 246.017,312.600 245.600 C 312.733 245.183,313.183 244.733,313.600 244.600 C 314.017 244.467,314.467 244.017,314.600 243.600 C 314.733 243.183,315.183 242.733,315.600 242.600 C 316.017 242.467,316.467 242.017,316.600 241.600 C 316.733 241.183,317.183 240.733,317.600 240.600 C 318.017 240.467,318.467 240.017,318.600 239.600 C 318.733 239.183,319.183 238.733,319.600 238.600 C 320.017 238.467,320.467 238.017,320.600 237.600 C 320.733 237.183,321.183 236.733,321.600 236.600 C 322.017 236.467,322.467 236.017,322.600 235.600 C 322.733 235.183,323.183 234.733,323.600 234.600 C 324.017 234.467,324.467 234.017,324.600 233.600 C 324.733 233.183,325.183 232.733,325.600 232.600 C 326.017 232.467,326.467 232.017,326.600 231.600 C 326.733 231.183,327.183 230.733,327.600 230.600 C 328.017 230.467,328.467 230.017,328.600 229.600 C 328.733 229.183,329.183 228.733,329.600 228.600 C 330.017 228.467,330.467 228.017,330.600 227.600 C 330.733 227.183,331.183 226.733,331.600 226.600 C 332.017 226.467,332.467 226.017,332.600 225.600 C 332.733 225.183,333.183 224.733,333.600 224.600 C 334.017 224.467,334.467 224.017,334.600 223.600 C 334.733 223.183,335.183 222.733,335.600 222.600 C 336.017 222.467,336.467 222.017,336.600 221.600 C 336.733 221.183,337.183 220.733,337.600 220.600 C 338.017 220.467,338.467 220.017,338.600 219.600 C 338.733 219.183,339.183 218.733,339.600 218.600 C 340.017 218.467,340.467 218.017,340.600 217.600 C 340.733 217.183,341.183 216.733,341.600 216.600 C 342.017 216.467,342.467 216.017,342.600 215.600 C 342.733 215.183,343.183 214.733,343.600 214.600 C 344.017 214.467,344.467 214.017,344.600 213.600 C 344.733 213.183,345.183 212.733,345.600 212.600 C 346.017 212.467,346.467 212.017,346.600 211.600 C 346.733 211.183,347.183 210.733,347.600 210.600 C 348.017 210.467,348.467 210.017,348.600 209.600 C 348.733 209.183,349.183 208.733,349.600 208.600 C 350.017 208.467,350.467 208.017,350.600 207.600 C 350.733 207.183,351.183 206.733,351.600 206.600 C 352.017 206.467,352.467 206.017,352.600 205.600 C 352.733 205.183,353.183 204.733,353.600 204.600 C 354.017 204.467,354.467 204.017,354.600 203.600 C 354.733 203.183,355.183 202.733,355.600 202.600 C 356.017 202.467,356.467 202.017,356.600 201.600 C 356.733 201.183,357.183 200.733,357.600 200.600 C 358.017 200.467,358.467 200.017,358.600 199.600 C 358.733 199.183,359.192 198.730,359.620 198.594 C 360.049 198.457,360.400 198.088,360.400 197.773 C 360.400 197.278,349.915 197.200,283.000 197.200 L 205.600 197.200 205.600 274.400 " stroke="none" fill="#f45424" fill-rule="evenodd"></path></g></svg>