<svg xmlns="http://www.w3.org/2000/svg" xmlns:xlink="http://www.w3.org/1999/xlink" version="1.1" width="1000" height="1000" viewBox="0 0 1000 1000" xml:space="preserve">
<desc>Created with Fabric.js 3.5.0</desc>
<defs>
</defs>
<rect x="0" y="0" width="100%" height="100%" fill="rgba(255,255,255,0)"/>
<g transform="matrix(0.9258 0 0 0.9258 479.1074 499.9864)" id="359098">
<g style="" vector-effect="non-scaling-stroke">
		<g transform="matrix(1 0 0 1 23.5 -19.6975)" id="732728">
<path style="stroke: none; stroke-width: 1; stroke-dasharray: none; stroke-linecap: butt; stroke-dashoffset: 0; stroke-linejoin: miter; stroke-miterlimit: 4; is-custom-font: none; font-file-url: none; fill: rgb(249,249,249); fill-rule: evenodd; opacity: 1;" transform=" translate(-690, -480.3025)" d="M 358.25 377.589844 C 357.5625 378.371094 357 379.75 357 380.652344 C 357 382.179688 355.042969 387.308594 352.914062 391.332031 C 352.410156 392.289062 352 393.574219 352 394.183594 C 352 395.261719 349.765625 400.820312 347.9375 404.308594 C 347.441406 405.246094 346.746094 407.832031 346.390625 410.058594 C 346.035156 412.285156 345.351562 414.101562 344.875 414.101562 C 344.394531 414.101562 344 415.230469 344 416.601562 C 344 417.980469 343.578125 419.101562 343.0625 419.101562 C 342.542969 419.101562 341.816406 421.128906 341.449219 423.605469 C 341.078125 426.078125 340.375 428.105469 339.886719 428.105469 C 339.398438 428.105469 339 429.234375 339 430.605469 C 339 431.984375 338.554688 433.105469 338.011719 433.105469 C 337.46875 433.105469 336.734375 434.910156 336.382812 437.109375 C 336.03125 439.308594 335.351562 441.109375 334.871094 441.109375 C 334.394531 441.109375 334 442.238281 334 443.609375 C 334 444.988281 333.554688 446.109375 333.011719 446.109375 C 332.46875 446.109375 331.738281 447.914062 331.382812 450.113281 C 331.03125 452.3125 330.351562 454.113281 329.871094 454.113281 C 329.390625 454.113281 329 455.238281 329 456.613281 C 329 457.988281 328.578125 459.113281 328.0625 459.113281 C 327.542969 459.113281 326.816406 461.140625 326.449219 463.617188 C 326.074219 466.089844 325.375 468.117188 324.886719 468.117188 C 324.398438 468.117188 324 469.242188 324 470.617188 C 324 471.992188 323.554688 473.117188 323.011719 473.117188 C 322.46875 473.117188 321.734375 474.921875 321.382812 477.121094 C 321.03125 479.320312 320.351562 481.121094 319.875 481.121094 C 319.394531 481.121094 319 482.246094 319 483.621094 C 319 484.996094 318.554688 486.121094 318.011719 486.121094 C 317.46875 486.121094 316.738281 487.921875 316.382812 490.125 C 316.03125 492.324219 315.351562 494.125 314.871094 494.125 C 314.390625 494.125 314 495.25 314 496.625 C 314 498 313.578125 499.125 313.0625 499.125 C 312.546875 499.125 311.820312 501.148438 311.449219 503.625 C 311.074219 506.101562 310.371094 508.125 309.886719 508.125 C 309.398438 508.125 309 509.253906 309 510.625 C 309 512.003906 308.554688 513.125 308.011719 513.125 C 307.46875 513.125 306.738281 514.929688 306.382812 517.128906 C 306.035156 519.328125 305.351562 521.128906 304.875 521.128906 C 304.394531 521.128906 304 522.257812 304 523.628906 C 304 525.007812 303.554688 526.128906 303.011719 526.128906 C 302.46875 526.128906 301.734375 527.933594 301.382812 530.132812 C 301.03125 532.332031 300.351562 534.132812 299.871094 534.132812 C 299.390625 534.132812 299 535.710938 299 537.632812 L 299 541.136719 L 325.773438 541.136719 L 326.449219 536.632812 C 326.816406 534.160156 327.542969 532.132812 328.0625 532.132812 C 328.578125 532.132812 329 530.785156 329 529.132812 C 329 527.484375 329.421875 526.128906 329.9375 526.128906 C 330.453125 526.128906 331.179688 524.105469 331.554688 521.628906 C 331.921875 519.152344 332.625 517.128906 333.113281 517.128906 C 333.601562 517.128906 334 516.003906 334 514.628906 C 334 513.253906 334.449219 512.125 335 512.125 C 335.550781 512.125 336 511.003906 336 509.625 L 336 507.125 L 359.570312 507.125 C 385.523438 507.125 385.199219 507.050781 386.394531 513.402344 C 386.777344 515.453125 387.519531 517.128906 388.046875 517.128906 C 388.570312 517.128906 389 518.253906 389 519.628906 C 389 521.007812 389.410156 522.128906 389.90625 522.128906 C 390.40625 522.128906 391.121094 524.378906 391.5 527.132812 C 391.878906 529.882812 392.59375 532.132812 393.09375 532.132812 C 393.589844 532.132812 394 533.257812 394 534.632812 C 394 536.011719 394.453125 537.132812 395 537.132812 C 395.550781 537.132812 396 538.035156 396 539.132812 C 396 541.035156 396.667969 541.136719 409.136719 541.136719 L 422.273438 541.136719 L 421.605469 535.382812 C 421.234375 532.21875 420.496094 529.484375 419.964844 529.300781 C 419.433594 529.117188 419 528.328125 419 527.550781 C 419 526.769531 418.59375 526.128906 418.09375 526.128906 C 417.59375 526.128906 416.878906 523.878906 416.5 521.128906 C 416.121094 518.378906 415.40625 516.128906 414.90625 516.128906 C 414.40625 516.128906 414 515.003906 414 513.628906 C 414 512.253906 413.554688 511.125 413.011719 511.125 C 412.46875 511.125 411.738281 509.328125 411.382812 507.125 C 411.03125 504.925781 410.351562 503.125 409.871094 503.125 C 409.390625 503.125 409 502 409 500.625 C 409 499.25 408.578125 498.125 408.0625 498.125 C 407.542969 498.125 406.816406 496.101562 406.449219 493.625 C 406.074219 491.148438 405.375 489.125 404.886719 489.125 C 404.398438 489.125 404 487.996094 404 486.621094 C 404 485.246094 403.554688 484.121094 403.011719 484.121094 C 402.46875 484.121094 401.734375 482.320312 401.382812 480.121094 C 401.03125 477.921875 400.351562 476.121094 399.875 476.121094 C 399.394531 476.121094 399 474.992188 399 473.621094 C 399 472.242188 398.554688 471.117188 398.011719 471.117188 C 397.46875 471.117188 396.738281 469.316406 396.382812 467.117188 C 396.03125 464.917969 395.351562 463.117188 394.871094 463.117188 C 394.390625 463.117188 394 461.988281 394 460.617188 C 394 459.238281 393.601562 458.113281 393.113281 458.113281 C 392.625 458.113281 391.921875 456.089844 391.550781 453.613281 C 391.183594 451.136719 390.457031 449.113281 389.9375 449.113281 C 389.421875 449.113281 389 447.988281 389 446.609375 C 389 445.238281 388.605469 444.109375 388.125 444.109375 C 387.648438 444.109375 386.964844 442.308594 386.617188 440.109375 C 386.261719 437.910156 385.53125 436.109375 384.988281 436.109375 C 384.445312 436.109375 384 434.984375 384 433.609375 C 384 432.234375 383.605469 431.105469 383.128906 431.105469 C 382.648438 431.105469 381.96875 429.308594 381.613281 427.105469 C 381.265625 424.90625 380.53125 423.105469 379.988281 423.105469 C 379.445312 423.105469 379 421.980469 379 420.605469 C 379 419.230469 378.601562 418.101562 378.113281 418.101562 C 377.625 418.101562 376.921875 416.078125 376.550781 413.601562 C 376.183594 411.125 375.457031 409.101562 374.941406 409.101562 C 374.421875 409.101562 374 407.976562 374 406.601562 C 374 405.226562 373.589844 404.101562 373.085938 404.101562 C 372.585938 404.101562 371.871094 402.300781 371.5 400.101562 C 371.128906 397.898438 370.414062 396.101562 369.910156 396.101562 C 369.410156 396.101562 369 394.972656 369 393.601562 C 369 392.222656 368.609375 391.097656 368.128906 391.097656 C 367.648438 391.097656 366.96875 389.296875 366.613281 387.097656 C 366.265625 384.898438 365.53125 383.097656 364.988281 383.097656 C 364.445312 383.097656 364 382.164062 364 381.023438 C 364 377.101562 360.511719 375.019531 358.25 377.589844 M 845 399.035156 C 839.195312 399.976562 836 401.105469 836 402.214844 C 836 402.703125 835.085938 403.101562 833.96875 403.101562 C 832.851562 403.101562 831.679688 403.777344 831.363281 404.601562 C 831.046875 405.425781 830.175781 406.101562 829.425781 406.101562 C 827.179688 406.101562 821.996094 411.871094 821.351562 415.09375 C 821.019531 416.75 820.355469 418.101562 819.875 418.101562 C 819.394531 418.101562 819 419.203125 819 420.546875 C 819 421.890625 818.546875 423.265625 818 423.605469 C 817.433594 423.957031 817 428.949219 817 435.167969 L 817 446.109375 L 802 446.109375 L 802 464.117188 L 817 464.117188 L 817 502.519531 C 817 536.613281 817.179688 540.988281 818.582031 541.53125 C 820.636719 542.316406 838.359375 542.316406 840.417969 541.53125 C 841.824219 540.988281 842 536.613281 842 502.519531 L 842 464.117188 L 864 464.117188 L 864 446.109375 L 842 446.109375 L 842 436.109375 C 842 430.105469 842.398438 426.105469 843 426.105469 C 843.550781 426.105469 844 425.214844 844 424.125 C 844 422.847656 844.886719 421.921875 846.5 421.515625 C 847.875 421.171875 849 420.488281 849 419.996094 C 849 419.507812 850.085938 419.101562 851.417969 419.101562 C 852.746094 419.101562 854.097656 418.542969 854.417969 417.851562 C 854.882812 416.851562 855.117188 416.851562 855.582031 417.851562 C 855.902344 418.542969 857.480469 419.101562 859.082031 419.101562 C 860.6875 419.101562 862 419.554688 862 420.105469 C 862 420.65625 863.125 421.105469 864.5 421.105469 L 867 421.105469 L 867 399.101562 L 864.148438 399.101562 C 862.578125 399.101562 858.636719 398.921875 855.394531 398.699219 C 852.152344 398.480469 847.476562 398.628906 845 399.035156 M 714 471.117188 L 714 541.136719 L 737 541.136719 L 737 401.101562 L 714 401.101562 L 714 471.117188 M 767 409.601562 L 767 416.101562 L 756 416.101562 L 756 429.105469 L 767 429.105469 L 767 441.109375 L 781 441.109375 L 781 429.105469 L 792 429.105469 L 792 416.101562 L 781 416.101562 L 781 403.101562 L 767 403.101562 L 767 409.601562 M 872 426.605469 L 872 432.105469 L 902 432.105469 L 902 421.105469 L 872 421.105469 L 872 426.605469 M 361.457031 440.734375 C 361.828125 442.726562 362.519531 445.089844 362.984375 445.984375 C 365.269531 450.375 367 455.125 367 457.015625 C 367 458.171875 367.453125 459.113281 368 459.113281 C 368.550781 459.113281 369 460.238281 369 461.617188 C 369 462.988281 369.40625 464.117188 369.90625 464.117188 C 370.402344 464.117188 371.121094 466.367188 371.5 469.117188 C 371.878906 471.867188 372.597656 474.121094 373.09375 474.121094 C 373.59375 474.121094 374 475.242188 374 476.621094 C 374 477.992188 374.394531 479.121094 374.871094 479.121094 C 375.351562 479.121094 376.027344 480.882812 376.371094 483.035156 C 376.714844 485.191406 377.558594 487.179688 378.25 487.460938 C 378.933594 487.738281 371.0625 488 360.75 488.042969 C 348.863281 488.09375 342 487.757812 342 487.125 C 342 486.570312 342.449219 486.121094 343 486.121094 C 343.550781 486.121094 344 485.21875 344 484.121094 C 344 483.019531 344.40625 482.121094 344.90625 482.121094 C 345.402344 482.121094 346.121094 479.871094 346.5 477.121094 C 346.875 474.371094 347.597656 472.117188 348.09375 472.117188 C 348.59375 472.117188 349 470.992188 349 469.617188 C 349 468.242188 349.410156 467.117188 349.90625 467.117188 C 350.40625 467.117188 351.121094 464.867188 351.5 462.117188 C 351.878906 459.363281 352.59375 457.113281 353.09375 457.113281 C 353.589844 457.113281 354 455.988281 354 454.613281 C 354 453.238281 354.40625 452.113281 354.90625 452.113281 C 355.40625 452.113281 356.121094 449.863281 356.5 447.113281 C 356.878906 444.359375 357.59375 442.109375 358.09375 442.109375 C 358.59375 442.109375 359 440.988281 359 439.609375 C 359 435.839844 360.683594 436.609375 361.457031 440.734375 M 478.25 443.777344 C 475.910156 444.023438 474 444.648438 474 445.171875 C 474 445.6875 473.324219 446.109375 472.5 446.109375 C 471.675781 446.109375 471 446.53125 471 447.042969 C 471 447.558594 470.027344 448.285156 468.835938 448.664062 C 467.644531 449.042969 465.507812 450.519531 464.082031 451.945312 L 461.5 454.542969 L 461.191406 450.328125 L 460.882812 446.109375 L 436 446.109375 L 436 541.136719 L 460.875 541.136719 L 461.1875 507.960938 C 461.429688 482.535156 461.792969 474.6875 462.75 474.367188 C 463.4375 474.140625 464 473.507812 464 472.964844 C 464 472.042969 464.617188 471.199219 467.703125 467.902344 C 470.265625 465.164062 471.992188 464.117188 473.957031 464.117188 C 475.082031 464.117188 476 463.667969 476 463.117188 C 476 462.566406 477.125 462.117188 478.5 462.117188 C 479.875 462.117188 481 462.566406 481 463.117188 C 481 463.667969 481.910156 464.117188 483.019531 464.117188 C 485.523438 464.117188 492 470.625 492 473.148438 C 492 474.167969 492.449219 475.28125 493 475.621094 C 493.632812 476.011719 494 488.132812 494 508.6875 L 494 541.136719 L 519 541.136719 L 519 512.625 C 519 496.949219 519.390625 484.121094 519.871094 484.121094 C 520.351562 484.121094 520.980469 481.996094 521.273438 479.402344 C 521.5625 476.808594 522.296875 474.519531 522.902344 474.316406 C 523.503906 474.117188 524 473.519531 524 472.992188 C 524 471.671875 525.789062 469.558594 530.464844 465.367188 C 531.230469 464.679688 532.789062 464.117188 533.929688 464.117188 C 535.066406 464.117188 536 463.667969 536 463.117188 C 536 462.566406 537.125 462.117188 538.5 462.117188 C 539.875 462.117188 541 462.566406 541 463.117188 C 541 463.667969 541.882812 464.117188 542.964844 464.117188 C 546.480469 464.117188 551.210938 469.8125 551.765625 474.714844 C 552.035156 477.136719 552.652344 479.121094 553.132812 479.121094 C 553.609375 479.121094 554 493.074219 554 510.125 L 554 541.136719 L 579 541.136719 L 579 508.625 C 579 490.378906 578.613281 476.121094 578.113281 476.121094 C 577.625 476.121094 577.042969 472.886719 576.820312 468.9375 C 576.574219 464.535156 575.945312 461.597656 575.207031 461.351562 C 574.542969 461.128906 574 460.308594 574 459.53125 C 574 458.753906 573.550781 458.113281 573 458.113281 C 572.449219 458.113281 572 457.390625 572 456.503906 C 572 454.238281 563.503906 446.109375 561.128906 446.109375 C 560.050781 446.109375 558.980469 445.550781 558.75 444.859375 C 558.445312 443.945312 554.878906 443.609375 545.5 443.609375 C 536.121094 443.609375 532.554688 443.945312 532.25 444.859375 C 532.019531 445.550781 531.195312 446.109375 530.417969 446.109375 C 529.636719 446.109375 529 446.558594 529 447.113281 C 529 447.664062 528.335938 448.113281 527.519531 448.113281 C 526.707031 448.113281 523.605469 450.585938 520.628906 453.613281 C 514.871094 459.464844 514 459.988281 514 457.613281 C 514 456.789062 513.550781 456.113281 513 456.113281 C 512.449219 456.113281 512 455.507812 512 454.765625 C 512 452.824219 508.871094 449.515625 506.25 448.6875 C 505.015625 448.296875 504 447.558594 504 447.042969 C 504 446.53125 503.363281 446.109375 502.585938 446.109375 C 501.804688 446.109375 501.019531 445.664062 500.835938 445.117188 C 500.460938 444.011719 484.84375 443.082031 478.25 443.777344 M 645.75 443.773438 C 643.6875 444.027344 642 444.652344 642 445.171875 C 642 445.691406 641.292969 446.109375 640.429688 446.109375 C 639.5625 446.109375 638.183594 446.785156 637.355469 447.613281 C 636.53125 448.4375 635.019531 449.113281 633.996094 449.113281 C 632.972656 449.113281 631.847656 450.011719 631.5 451.113281 C 631.152344 452.214844 630.480469 453.113281 630.003906 453.113281 C 629.527344 453.113281 628.4375 453.820312 627.574219 454.6875 C 626.144531 456.113281 626 455.796875 626 451.183594 L 626 446.109375 L 601 446.109375 L 601 584.148438 L 626 584.148438 L 626 531.960938 L 629.484375 535.546875 C 631.398438 537.519531 633.613281 539.132812 634.398438 539.132812 C 635.1875 539.132812 635.996094 539.628906 636.199219 540.234375 C 636.402344 540.835938 638.6875 541.570312 641.28125 541.863281 C 643.875 542.15625 646 542.785156 646 543.265625 C 646 543.742188 647.800781 544.136719 650 544.136719 C 652.199219 544.136719 654 543.746094 654 543.265625 C 654 542.789062 657.457031 542.175781 661.679688 541.90625 C 667.957031 541.503906 669.671875 541.023438 671.089844 539.273438 C 672.042969 538.097656 673.359375 537.132812 674.019531 537.132812 C 675.699219 537.132812 685.636719 526.851562 686.457031 524.261719 C 686.832031 523.089844 687.554688 522.128906 688.066406 522.128906 C 688.582031 522.128906 689 521.457031 689 520.628906 C 689 519.804688 689.40625 519.128906 689.90625 519.128906 C 690.402344 519.128906 691.121094 516.878906 691.5 514.128906 C 691.878906 511.375 692.597656 509.125 693.09375 509.125 C 693.59375 509.125 694 506.226562 694 502.683594 C 694 499.140625 694.449219 495.964844 695 495.625 C 695.550781 495.285156 696 493.261719 696 491.125 C 696 488.988281 695.550781 486.960938 695 486.621094 C 694.449219 486.28125 694 483.328125 694 480.058594 C 694 476.792969 693.605469 474.121094 693.128906 474.121094 C 692.648438 474.121094 691.960938 471.867188 691.59375 469.117188 C 691.230469 466.367188 690.496094 464.117188 689.964844 464.117188 C 689.433594 464.117188 689 463.441406 689 462.617188 C 689 461.789062 688.550781 461.117188 688 461.117188 C 687.453125 461.117188 687 460.460938 687 459.664062 C 687 457.773438 677.34375 448.113281 675.449219 448.113281 C 674.65625 448.113281 674 447.664062 674 447.113281 C 674 446.558594 672.910156 446.109375 671.582031 446.109375 C 670.253906 446.109375 669.015625 445.65625 668.828125 445.101562 C 668.460938 443.996094 651.769531 443.035156 645.75 443.773438 M 955.25 443.78125 C 952.910156 444.023438 951 444.648438 951 445.171875 C 951 445.6875 949.875 446.109375 948.5 446.109375 C 947.125 446.109375 946 446.507812 946 446.988281 C 946 447.464844 944.628906 448.136719 942.949219 448.472656 C 941.269531 448.808594 938.402344 450.667969 936.578125 452.601562 C 934.757812 454.535156 932.753906 456.113281 932.132812 456.113281 C 931.511719 456.113281 931 456.582031 931 457.160156 C 931 457.734375 929.875 459.328125 928.5 460.707031 C 927.125 462.078125 926 463.859375 926 464.660156 C 926 465.464844 925.546875 466.117188 925 466.117188 C 924.449219 466.117188 924 466.792969 924 467.617188 C 924 468.441406 923.566406 469.117188 923.035156 469.117188 C 922.503906 469.117188 921.769531 471.367188 921.40625 474.121094 C 921.039062 476.871094 920.351562 479.121094 919.871094 479.121094 C 919.394531 479.121094 919 481.601562 919 484.632812 C 919 487.667969 918.449219 491.035156 917.773438 492.109375 C 916.808594 493.660156 916.808594 494.332031 917.773438 495.300781 C 918.484375 496.007812 919 499.1875 919 502.828125 C 919 506.289062 919.386719 509.125 919.859375 509.125 C 920.332031 509.125 920.984375 511.34375 921.304688 514.054688 C 921.945312 519.46875 923.339844 522.488281 926.75 525.828125 C 927.988281 527.042969 929 528.535156 929 529.140625 C 929 530.828125 935.183594 536.125 937.972656 536.835938 C 939.332031 537.179688 941.152344 538.332031 942.011719 539.398438 C 943.175781 540.832031 945.304688 541.46875 950.289062 541.871094 C 953.980469 542.167969 957 542.796875 957 543.273438 C 957 543.746094 960.828125 544.136719 965.5 544.136719 C 970.175781 544.136719 974 543.75 974 543.28125 C 974 542.808594 977.253906 542.152344 981.238281 541.820312 C 985.21875 541.484375 988.628906 540.742188 988.820312 540.171875 C 989.007812 539.601562 990.253906 539.132812 991.582031 539.132812 C 992.910156 539.132812 994 538.734375 994 538.242188 C 994 537.753906 995.125 537.070312 996.5 536.722656 C 998.957031 536.105469 999 535.925781 999 526.113281 C 999 516.128906 999 516.128906 996.5 516.128906 C 995.125 516.128906 994 516.570312 994 517.109375 C 994 517.648438 992.875 518.375 991.5 518.71875 C 990.125 519.0625 989 519.746094 989 520.238281 C 989 520.730469 987.914062 521.128906 986.582031 521.128906 C 985.253906 521.128906 983.980469 521.691406 983.75 522.378906 C 983.445312 523.292969 979.878906 523.628906 970.5 523.628906 C 961.121094 523.628906 957.554688 523.292969 957.25 522.378906 C 957.019531 521.691406 956.195312 521.128906 955.417969 521.128906 C 954.636719 521.128906 954 520.691406 954 520.148438 C 954 519.609375 952.875 518.886719 951.5 518.539062 C 950.003906 518.164062 949 517.195312 949 516.125 C 949 515.148438 948.328125 514.082031 947.5 513.765625 C 946.675781 513.449219 946 512.277344 946 511.160156 C 946 510.039062 945.550781 509.125 945 509.125 C 944.449219 509.125 944 507.777344 944 506.125 C 944 504.476562 943.550781 503.125 943 503.125 C 942.449219 503.125 942 502.675781 942 502.125 C 942 501.480469 953.335938 501.125 974 501.125 L 1006 501.125 L 1006 488.625 C 1006 480.953125 1005.613281 476.121094 1005 476.121094 C 1004.449219 476.121094 1004 474.542969 1004 472.617188 C 1004 470.691406 1003.609375 469.117188 1003.128906 469.117188 C 1002.648438 469.117188 1001.984375 467.421875 1001.652344 465.355469 C 1001.320312 463.261719 1000.15625 460.945312 999.027344 460.132812 C 997.910156 459.328125 997 458.210938 997 457.644531 C 996.996094 455.859375 989.53125 449.285156 986.707031 448.574219 C 985.21875 448.199219 984 447.492188 984 447.003906 C 984 446.511719 982.910156 446.109375 981.585938 446.109375 C 980.253906 446.109375 979.015625 445.675781 978.832031 445.148438 C 978.457031 444.058594 961.773438 443.09375 955.25 443.78125 M 1061 445.109375 C 1061 445.660156 1060.339844 446.109375 1059.523438 446.109375 C 1057.609375 446.109375 1049 454.722656 1049 456.640625 C 1049 457.449219 1048.550781 458.113281 1048 458.113281 C 1047.445312 458.113281 1047 455.445312 1047 452.113281 L 1047 446.109375 L 1024 446.109375 L 1024 542.136719 L 1047 542.136719 L 1047 515.628906 C 1047 498.625 1047.359375 489.125 1048 489.125 C 1048.550781 489.125 1049 487.574219 1049 485.679688 C 1049 483.785156 1049.390625 481.996094 1049.871094 481.699219 C 1050.351562 481.402344 1051.011719 479.816406 1051.339844 478.171875 C 1051.667969 476.527344 1053.863281 473.253906 1056.21875 470.898438 L 1060.5 466.617188 L 1081 466.90625 L 1081 456.9375 C 1081 449.632812 1080.621094 446.585938 1079.570312 445.539062 C 1077.878906 443.847656 1061 443.457031 1061 445.109375 M 762 494.125 L 762 542.136719 L 772.917969 542.136719 C 778.921875 542.136719 784.546875 541.863281 785.417969 541.53125 C 786.828125 540.988281 787 535.820312 787 493.515625 L 787 446.109375 L 762 446.109375 L 762 494.125 M 876 494.125 L 876 542.136719 L 899 542.136719 L 899 446.109375 L 876 446.109375 L 876 494.125 M 651 463.117188 C 651 463.667969 652.351562 464.117188 654 464.117188 C 655.648438 464.117188 657 464.566406 657 465.117188 C 657 465.667969 657.738281 466.117188 658.640625 466.117188 C 660.828125 466.117188 665.78125 471.398438 666.578125 474.578125 C 666.929688 475.976562 667.617188 477.121094 668.109375 477.121094 C 668.597656 477.121094 669 479.371094 669 482.121094 C 669 484.871094 669.449219 487.125 670 487.125 C 670.550781 487.125 671 489.148438 671 491.625 C 671 494.101562 670.550781 496.125 670 496.125 C 669.449219 496.125 669 498.375 669 501.125 C 669 503.875 668.550781 506.125 668 506.125 C 667.449219 506.125 667 507.21875 667 508.558594 C 667 509.894531 666.324219 511.660156 665.5 512.488281 C 664.671875 513.308594 664 514.277344 664 514.632812 C 664 515.671875 658.253906 521.128906 657.160156 521.128906 C 656.613281 521.128906 655.980469 521.691406 655.75 522.378906 C 655.054688 524.472656 637.992188 523.871094 636.785156 521.714844 C 636.265625 520.78125 634.75 519.605469 633.417969 519.101562 C 632.089844 518.59375 631 517.515625 631 516.710938 C 631 515.902344 629.988281 514.535156 628.75 513.667969 C 626.0625 511.785156 625.136719 478.238281 627.75 477.371094 C 628.4375 477.140625 629 476.3125 629 475.535156 C 629 474.757812 629.449219 474.121094 630 474.121094 C 630.550781 474.121094 631 473.511719 631 472.769531 C 631 470.828125 634.128906 467.519531 636.75 466.691406 C 637.988281 466.300781 639 465.5625 639 465.050781 C 639 464.535156 640.578125 464.117188 642.5 464.117188 C 644.425781 464.117188 646 463.667969 646 463.117188 C 646 462.566406 647.125 462.117188 648.5 462.117188 C 649.875 462.117188 651 462.566406 651 463.117188 M 976.03125 467.054688 C 980.429688 471.449219 981.039062 472.597656 981.621094 477.558594 L 982.273438 483.121094 L 961.886719 483.042969 C 950.675781 483 942.0625 482.738281 942.75 482.460938 C 943.4375 482.179688 944 480.867188 944 479.535156 C 944 478.207031 944.402344 477.121094 944.890625 477.121094 C 945.382812 477.121094 946.074219 475.960938 946.429688 474.539062 C 947.121094 471.796875 954.113281 464.117188 955.921875 464.117188 C 956.515625 464.117188 957 463.667969 957 463.117188 C 957 462.542969 960.015625 462.117188 964.050781 462.117188 L 971.09375 462.117188 L 976.03125 467.054688" stroke-linecap="round"/>
</g>
		<g transform="matrix(1 0 0 1 15.3523 34.0454)" id="112851">
<path style="stroke: none; stroke-width: 1; stroke-dasharray: none; stroke-linecap: butt; stroke-dashoffset: 0; stroke-linejoin: miter; stroke-miterlimit: 4; is-custom-font: none; font-file-url: none; fill: rgb(249,186,2); fill-rule: evenodd; opacity: 1;" transform=" translate(-681.8523, -534.0454)" d="M 442.285156 445.851562 C 445.46875 446.050781 450.421875 446.050781 453.285156 445.847656 C 456.152344 445.648438 453.550781 445.484375 447.5 445.488281 C 441.449219 445.488281 439.105469 445.652344 442.285156 445.851562 M 607.75 445.851562 C 610.636719 446.050781 615.363281 446.050781 618.25 445.851562 C 621.136719 445.648438 618.773438 445.480469 613 445.480469 C 607.226562 445.480469 604.863281 445.648438 607.75 445.851562 M 347.75 507.875 C 354.488281 508.046875 365.511719 508.046875 372.25 507.875 C 378.988281 507.699219 373.476562 507.558594 360 507.558594 C 346.523438 507.558594 341.011719 507.699219 347.75 507.875 M 357 590.648438 L 357 597.148438 L 389 597.148438 L 389 584.148438 L 357 584.148438 L 357 590.648438 M 401 590.671875 L 401 597.199219 L 416.25 596.925781 L 431.5 596.648438 L 431.820312 592.742188 C 432.539062 583.949219 432.902344 584.148438 415.980469 584.148438 L 401 584.148438 L 401 590.671875 M 443.25 585.644531 C 441.382812 587.761719 441.625 595.792969 443.582031 596.542969 C 444.453125 596.875 451.652344 597.148438 459.582031 597.148438 L 474 597.148438 L 474 584.148438 L 459.25 584.183594 C 447.796875 584.214844 444.21875 584.539062 443.25 585.644531 M 567 590.648438 L 567 597.148438 L 581.417969 597.148438 C 599.070312 597.148438 599 597.171875 599 591.46875 C 599 584.449219 598.273438 584.148438 581.570312 584.148438 L 567 584.148438 L 567 590.648438 M 665.25 585.644531 C 663.378906 587.761719 663.628906 595.792969 665.582031 596.542969 C 666.453125 596.875 673.652344 597.148438 681.582031 597.148438 L 696 597.148438 L 696 584.148438 L 681.25 584.183594 C 669.800781 584.214844 666.21875 584.539062 665.25 585.644531 M 762 590.648438 L 762 597.148438 L 794 597.148438 L 794 584.148438 L 762 584.148438 L 762 590.648438 M 806 590.671875 L 806 597.199219 L 821.25 596.925781 L 836.5 596.648438 L 836.820312 592.742188 C 837.539062 583.949219 837.902344 584.148438 820.980469 584.148438 L 806 584.148438 L 806 590.671875 M 904 590.648438 L 904 597.148438 L 918.800781 597.148438 C 935.191406 597.148438 936.019531 596.863281 935.96875 591.195312 C 935.910156 584.492188 935.054688 584.148438 918.640625 584.148438 L 904 584.148438 L 904 590.648438 M 1001.449219 586.492188 C 1001.125 587.785156 1001.003906 590.597656 1001.179688 592.742188 L 1001.5 596.648438 L 1016.75 596.925781 L 1032 597.199219 L 1032 584.148438 L 1017.019531 584.148438 C 1002.136719 584.148438 1002.03125 584.160156 1001.449219 586.492188 M 250.75 608.238281 C 243.9375 615.699219 251.300781 623.847656 262.785156 621.550781 C 267.632812 620.578125 268.691406 608.152344 263.921875 608.152344 C 262.863281 608.152344 262 607.703125 262 607.152344 C 262 605.265625 252.636719 606.171875 250.75 608.238281 M 279 607.152344 C 279 607.703125 278.324219 608.152344 277.5 608.152344 C 276.675781 608.152344 276 608.828125 276 609.652344 C 276 610.476562 275.550781 611.152344 275 611.152344 C 274.453125 611.152344 274 612.503906 274 614.152344 C 274 615.804688 274.453125 617.152344 275 617.152344 C 275.550781 617.152344 276 618.003906 276 619.035156 C 276 622.324219 287.460938 623.550781 290.425781 620.582031 C 292.8125 618.195312 292.535156 610.054688 289.988281 607.875 C 287.800781 606 279 605.421875 279 607.152344 M 302.75 608.046875 C 300.476562 610.351562 300.363281 618.375 302.570312 620.582031 C 306.128906 624.144531 317 621.882812 317 617.582031 C 317 616.796875 317.449219 616.152344 318 616.152344 C 318.550781 616.152344 319 615.480469 319 614.652344 C 319 613.828125 318.550781 613.152344 318 613.152344 C 317.449219 613.152344 317 612.351562 317 611.375 C 317 606.605469 306.570312 604.171875 302.75 608.046875 M 515.75 608.238281 C 514.789062 609.289062 514 610.789062 514 611.570312 C 514 612.351562 513.488281 613.15625 512.863281 613.367188 C 511.683594 613.761719 512.929688 616.558594 515.972656 620.328125 C 518.015625 622.859375 525.910156 622.835938 528.847656 620.285156 C 531.855469 617.679688 531.960938 609.589844 529 608.652344 C 527.902344 608.304688 527 607.597656 527 607.082031 C 527 605.25 517.597656 606.210938 515.75 608.238281 M 540.75 608.238281 C 533.9375 615.699219 541.300781 623.847656 552.785156 621.550781 C 557.632812 620.578125 558.691406 608.152344 553.921875 608.152344 C 552.863281 608.152344 552 607.703125 552 607.152344 C 552 605.265625 542.636719 606.171875 540.75 608.238281 M 609.25 608.757812 C 603.828125 614.941406 607.671875 622.15625 616.386719 622.15625 C 623.292969 622.15625 626 619.988281 626 614.464844 C 626 606.554688 614.589844 602.664062 609.25 608.757812 M 737.75 608.046875 C 736.789062 609.019531 736 610.535156 736 611.402344 C 736 612.273438 735.460938 613.167969 734.800781 613.386719 C 733.210938 613.917969 736.347656 620.691406 738.578125 621.546875 C 746.101562 624.433594 752 621.253906 752 614.304688 C 752 606.800781 742.914062 602.808594 737.75 608.046875 M 877.75 608.046875 C 875.476562 610.351562 875.363281 618.375 877.570312 620.582031 C 880.535156 623.550781 892 622.324219 892 619.035156 C 892 618.003906 892.449219 617.152344 893 617.152344 C 893.550781 617.152344 894 615.804688 894 614.152344 C 894 612.503906 893.550781 611.152344 893 611.152344 C 892.449219 611.152344 892 610.476562 892 609.652344 C 892 608.828125 891.324219 608.152344 890.5 608.152344 C 889.675781 608.152344 889 607.703125 889 607.152344 C 889 605.367188 879.660156 606.105469 877.75 608.046875 M 975.75 608.238281 C 968.414062 616.269531 980.792969 627.277344 989.078125 620.085938 C 991.652344 617.851562 992.390625 610.117188 990.105469 609.351562 C 989.476562 609.144531 988.328125 608.339844 987.554688 607.5625 C 985.449219 605.460938 977.890625 605.890625 975.75 608.238281 M 1046 607.082031 C 1046 607.597656 1045.097656 608.304688 1044 608.652344 C 1041.039062 609.589844 1041.144531 617.679688 1044.152344 620.285156 C 1047.5 623.191406 1059 622.597656 1059 619.523438 C 1059 618.757812 1059.519531 617.300781 1060.148438 616.285156 C 1061.496094 614.125 1059.371094 608.152344 1057.253906 608.152344 C 1056.566406 608.152344 1056 607.703125 1056 607.152344 C 1056 606.601562 1053.75 606.148438 1051 606.148438 C 1048.25 606.148438 1046 606.570312 1046 607.082031 M 1101 607.082031 C 1101 607.597656 1100.101562 608.304688 1099 608.652344 C 1096.039062 609.589844 1096.144531 617.679688 1099.152344 620.285156 C 1102.496094 623.191406 1114 622.597656 1114 619.523438 C 1114 618.757812 1114.519531 617.300781 1115.148438 616.285156 C 1116.496094 614.125 1114.375 608.152344 1112.253906 608.152344 C 1111.566406 608.152344 1111 607.703125 1111 607.152344 C 1111 606.601562 1108.75 606.148438 1106 606.148438 C 1103.25 606.148438 1101 606.570312 1101 607.082031" stroke-linecap="round"/>
</g>
</g>
</g>
</svg>